<svg width="68" height="68" viewBox="0 0 68 68" fill="none" xmlns="http://www.w3.org/2000/svg">
<path d="M22.3338 0C22.1145 0 21.8952 0.109678 21.6759 0.219356C8.29702 5.8129 -0.91463 19.3032 0.0723328 34.8774C1.16896 52.5355 15.4251 66.9032 33.0808 67.8903C33.7387 67.8903 34.616 68 35.274 68C49.9688 68 62.4703 59.1161 67.8438 46.3935C68.3921 45.1871 67.4051 43.9806 66.3085 43.9806C66.0892 43.9806 65.6505 44.0903 65.4312 44.2C60.935 46.9419 55.6712 48.3677 49.9688 48.3677C49.3108 48.3677 48.7625 48.3677 48.1045 48.2581C32.8614 47.3806 20.5792 35.0968 19.7019 19.8516C19.3729 13.6 20.9082 7.67742 23.8691 2.63226C24.5271 1.53548 23.6498 0 22.3338 0Z" fill="#FDFEF8"/>
</svg>
