<svg width="68" height="68" viewBox="0 0 68 68" fill="none" xmlns="http://www.w3.org/2000/svg">
<path d="M50.7745 33.5317C50.7745 24.0088 43.0328 16.2871 33.4842 16.2871C10.5509 17.1972 10.5586 49.8692 33.4842 50.7754C43.0324 50.7754 50.7745 43.0551 50.7745 33.5317Z" fill="#FDFEF8"/>
<path d="M35.3542 55.9114C35.3542 55.1629 34.748 54.5566 34.0033 54.5566C33.2549 54.5566 32.6523 55.1629 32.6523 55.9114V66.6554C32.7197 68.4442 35.2868 68.4517 35.3541 66.6554L35.3542 55.9114Z" fill="#FDFEF8"/>
<path d="M68.0059 34.0053C68.0059 33.2568 67.3997 32.6543 66.6512 32.6543H55.9074C55.159 32.6543 54.5527 33.2605 54.5527 34.0053C54.5527 34.7537 55.159 35.3563 55.9074 35.3563H66.6512C67.3996 35.3563 68.0059 34.75 68.0059 34.0053Z" fill="#FDFEF8"/>
<path d="M56.1368 9.96275L48.5403 17.5595C48.0126 18.0871 48.0126 18.9441 48.5403 19.4717C48.8022 19.7337 49.1502 19.8684 49.4982 19.8684C49.8463 19.8684 50.1868 19.7337 50.4525 19.4717L58.049 11.875C59.2689 10.5652 57.454 8.74283 56.1368 9.96275Z" fill="#FDFEF8"/>
<path d="M57.094 58.4475C58.2765 58.4587 58.9052 56.9806 58.052 56.1385L50.4555 48.5418C49.1457 47.3219 47.3271 49.1368 48.5432 50.4541L56.1398 58.0508C56.4017 58.3128 56.7497 58.4475 57.0977 58.4475L57.094 58.4475Z" fill="#FDFEF8"/>
<path d="M32.6524 1.35472V12.0988C32.7198 13.8876 35.2869 13.895 35.3542 12.0988V1.35472C35.3542 0.606276 34.748 0 34.0033 0C33.2549 0 32.6524 0.606238 32.6524 1.35472Z" fill="#FDFEF8"/>
<path d="M18.5115 19.8675C19.6941 19.8787 20.3227 18.4006 19.4695 17.5624L11.873 9.96564C10.5633 8.74571 8.7409 10.5606 9.96079 11.8779L17.5573 19.4746C17.8193 19.7366 18.1673 19.8713 18.5115 19.8713L18.5115 19.8675Z" fill="#FDFEF8"/>
<path d="M17.5611 48.5413L9.96456 56.138C9.11136 56.9762 9.74003 58.4582 10.9225 58.447C11.2668 58.447 11.6148 58.3122 11.8805 58.0503L19.477 50.4536C20.6969 49.1438 18.8821 47.3251 17.5648 48.5413L17.5611 48.5413Z" fill="#FDFEF8"/>
<path d="M1.35468 32.6543C0.60626 32.6543 0 33.2605 0 34.0053C0 34.7537 0.606222 35.3563 1.35468 35.3563H12.0985C13.8872 35.2889 13.8947 32.7217 12.0985 32.6544L1.35468 32.6543Z" fill="#FDFEF8"/>
</svg>
