<svg width="82" height="68" viewBox="0 0 82 68" fill="none" xmlns="http://www.w3.org/2000/svg">
<path d="M67 17H65.9609C65.4492 10.2969 59.832 5 52.9999 5C51.1249 5 49.2616 5.41016 47.5663 6.1875C44.1366 2.2461 39.2382 0 34.0003 0C24.4105 0 16.5473 7.5391 16.0273 17H15C6.7266 17 0 23.7305 0 32C0 40.2695 6.7266 47 15 47H67C75.2734 47 82 40.2695 82 32C82 23.7305 75.2734 17 67 17Z" fill="#FDFEF8"/>
<path d="M11.1556 66.0565L11.1509 66.059C10.5189 66.453 9.66027 66.2977 9.23493 65.7122C8.80958 65.1267 8.97787 64.3313 9.60991 63.9373L9.61455 63.9349C11.3378 62.8609 13.6705 62.2398 16.108 62.2398C18.5454 62.2398 20.8781 62.8609 22.6014 63.9349L23.187 64.2994C25.7132 65.8736 29.8096 65.8736 32.3358 64.2994C32.5538 64.1638 32.7724 64.0276 32.9911 63.8913C36.6383 61.6187 42.5506 61.6187 46.1972 63.8913L46.3827 64.0061C47.8257 64.9058 49.7874 65.3931 51.828 65.3931C53.8692 65.3931 57.2739 64.0061 57.2739 64.0061L57.2825 64.0012C59.1369 62.8455 61.6466 62.179 64.2695 62.179C66.8918 62.179 69.4014 62.8455 71.2558 64.0012L72.3901 64.7075C73.0221 65.1016 73.1904 65.8969 72.7651 66.4824C72.3397 67.0679 71.4818 67.2232 70.8497 66.8292L69.7155 66.1228C68.2725 65.2237 66.3101 64.7358 64.2695 64.7358C62.2289 64.7358 60.2665 65.2237 58.8236 66.1228L58.815 66.1277C56.9605 67.2833 54.4509 67.9504 51.828 67.9504C49.2057 67.9504 46.6961 67.2833 44.8416 66.1283L44.6568 66.0129C41.861 64.2706 37.328 64.2706 34.5321 66.0129L33.8769 66.4217C30.4993 68.5261 25.0236 68.5261 21.646 66.4217L21.0603 66.0565C19.7485 65.239 17.9637 64.7972 16.108 64.7972C14.2522 64.7972 12.4674 65.239 11.1556 66.0565Z" fill="#FDFEF8"/>
<path d="M11.1556 57.8775L11.1509 57.8805C10.5189 58.2746 9.66027 58.1187 9.23493 57.5332C8.80958 56.9477 8.97787 56.1529 9.60991 55.7589C9.61124 55.7577 9.61323 55.7571 9.61455 55.7558C11.3378 54.6818 13.6705 54.0614 16.108 54.0614C18.5454 54.0614 20.8781 54.6818 22.6014 55.7558L23.187 56.121C25.7132 57.6952 29.8096 57.6952 32.3358 56.121C32.5538 55.9854 32.7724 55.8491 32.9911 55.7123C36.6383 53.4403 42.5506 53.4403 46.1972 55.7123L46.3827 55.8277C47.8257 56.7268 49.7874 57.2147 51.828 57.2147C53.8692 57.2147 55.8309 56.7268 57.2739 55.8277L57.2825 55.8227C59.1369 54.6671 61.6466 54 64.2695 54C66.8918 54 69.4014 54.6671 71.2558 55.8221L72.3901 56.5291C73.0221 56.9231 73.1904 57.7179 72.7651 58.3034C72.3397 58.8889 71.4818 59.0448 70.8497 58.6508L69.7155 57.9444C68.2725 57.0447 66.3101 56.5574 64.2695 56.5574C62.2289 56.5574 60.2665 57.0453 58.8236 57.9444L58.815 57.9493C56.9605 59.1049 54.4509 59.7714 51.828 59.7714C49.2057 59.7714 46.6961 59.1049 44.8416 57.9493L44.6568 57.8339C41.861 56.0922 37.328 56.0922 34.5321 57.8345L33.8769 58.2426C30.4993 60.3471 25.0236 60.3471 21.646 58.2426L21.0603 57.8775C19.7485 57.06 17.9637 56.6181 16.108 56.6181C14.2522 56.6181 12.4674 57.06 11.1556 57.8775Z" fill="#FDFEF8"/>
</svg>
