<svg width="98" height="64" viewBox="0 0 98 64" fill="none" xmlns="http://www.w3.org/2000/svg">
<path d="M67 34H65.9609C65.4492 27.2969 59.832 22 52.9999 22C51.1249 22 49.2616 22.4102 47.5663 23.1875C44.1366 19.2461 39.2382 17 34.0003 17C24.4105 17 16.5473 24.5391 16.0273 34H15C6.7266 34 0 40.7305 0 49C0 57.2695 6.7266 64 15 64H67C75.2734 64 82 57.2695 82 49C82 40.7305 75.2734 34 67 34Z" fill="#FDFEF8"/>
<path d="M70.4658 0C71.2591 0 71.7879 0.935227 71.3915 1.60352C69.6063 4.67774 68.6805 8.28731 68.8788 12.0967C69.4079 21.386 76.8133 28.8705 86.0038 29.4053C86.4005 29.4721 86.7312 29.4727 87.1279 29.4727C90.5661 29.4727 93.7402 28.6034 96.4511 26.9326C96.5834 26.8658 96.8482 26.7988 96.9804 26.7988C97.6414 26.7991 98.2357 27.5345 97.9052 28.2695C95.2022 34.7372 89.5078 39.5756 82.5497 41.002C80.1383 35.8857 74.9729 32.3399 68.9999 32.3398H67.9609C67.5002 26.2419 62.9025 21.296 57.0058 20.3691C56.797 11.2548 62.2539 3.43599 70.0693 0.133789C70.2015 0.0669848 70.3336 3.32618e-05 70.4658 0Z" fill="#FDFEF8"/>
</svg>
