<svg width="82" height="68" viewBox="0 0 82 68" fill="none" xmlns="http://www.w3.org/2000/svg">
<path d="M67 17H65.9609C65.4492 10.2969 59.832 5 52.9999 5C51.1249 5 49.2616 5.41016 47.5663 6.1875C44.1366 2.2461 39.2382 0 34.0003 0C24.4105 0 16.5473 7.5391 16.0273 17H15C6.7266 17 0 23.7305 0 32C0 40.2695 6.7266 47 15 47H67C75.2734 47 82 40.2695 82 32C82 23.7305 75.2734 17 67 17Z" fill="#FDFEF8"/>
<path d="M14 68C12.398 68 11 66.5627 11 64.924V55.076C11 53.4334 12.4018 52 14 52C15.602 52 17 53.4373 17 55.076V64.924C17 66.7719 15.8024 68 14 68Z" fill="#FDFEF8"/>
<path d="M32 68C30.398 68 29 66.5627 29 64.924V55.076C29 53.4334 30.4018 52 32 52C33.602 52 35 53.4373 35 55.076V64.924C35.0038 66.7719 33.602 68 32 68Z" fill="#FDFEF8"/>
<path d="M50 68C48.398 68 47 66.5627 47 64.924V55.076C47 53.4334 48.4018 52 50 52C51.602 52 53 53.4373 53 55.076V64.924C53 66.7719 51.602 68 50 68Z" fill="#FDFEF8"/>
<path d="M68 68C66.398 68 65 66.5627 65 64.924V55.076C65 53.4334 66.4018 52 68 52C69.602 52 71 53.4373 71 55.076V64.924C71.0038 66.7719 69.602 68 68 68Z" fill="#FDFEF8"/>
</svg>
