<svg width="100" height="95" viewBox="0 0 100 95" fill="none" xmlns="http://www.w3.org/2000/svg">
<path d="M100.01 35.4961C100.01 34.7149 99.3772 34.0859 98.5959 34.0859H87.3809C86.5996 34.0859 85.9668 34.7187 85.9668 35.4961C85.9668 36.2774 86.5996 36.9063 87.3809 36.9063H98.5959C99.3772 36.9063 100.01 36.2735 100.01 35.4961Z" fill="#FDFEF8"/>
<path d="M87.6201 10.3984L79.6904 18.3281C79.1396 18.8788 79.1396 19.7734 79.6904 20.3242C79.9639 20.5976 80.3271 20.7382 80.6904 20.7382C81.0537 20.7382 81.4092 20.5976 81.6865 20.3242L89.6162 12.3945C90.8896 11.0273 88.9951 9.12495 87.6201 10.3984Z" fill="#FDFEF8"/>
<path d="M63.1075 1.4141V12.6291C63.1778 14.4963 65.8575 14.5041 65.9278 12.6291V1.4141C65.9278 0.632851 65.295 0 64.5176 0C63.7364 0 63.1075 0.632811 63.1075 1.4141Z" fill="#FDFEF8"/>
<path d="M48.3456 20.7372C49.58 20.7489 50.2362 19.206 49.3456 18.331L41.4159 10.4013C40.0487 9.12788 38.1464 11.0224 39.4198 12.3974L47.3495 20.3271C47.623 20.6005 47.9863 20.7411 48.3456 20.7411L48.3456 20.7372Z" fill="#FDFEF8"/>
<path d="M64.5186 17.4375C74.4914 17.4376 82.5769 25.5236 82.5771 35.4961C82.5771 39.152 81.4889 42.5533 79.6211 45.3965C76.9055 42.6817 73.1568 41 69.0215 41H67.9824C67.4707 34.2969 61.8535 29.0001 55.0215 29C53.1465 29 51.2832 29.4102 49.5879 30.1875C49.056 29.5762 48.489 29.0052 47.8906 28.4775C50.2642 22.5314 55.8063 17.7842 64.5186 17.4375Z" fill="#FDFEF8"/>
<g filter="url(#filter0_d_491_1298)">
<path fill-rule="evenodd" clip-rule="evenodd" d="M23.5829 72H30.5058C31.0538 72 31.475 72.5675 31.1868 73.1367L28.2348 79.4943H31.2231C31.8749 79.4943 32.3014 80.2896 31.7383 80.8377L21.5717 91.7517C21.0246 92.3394 20.0554 91.7965 20.2602 91.0337L20.2576 91.0329L22.3024 83.4622H19.7742C19.2404 83.4622 18.8387 82.9308 19.0639 82.3845L22.8593 72.4964C22.9772 72.1902 23.2707 72.0011 23.5829 72.0011L23.5829 72Z" fill="#00D0FF" fill-opacity="0.4" shape-rendering="crispEdges"/>
<path d="M30.5059 72.5C30.6043 72.5 30.6914 72.5506 30.7402 72.626C30.783 72.692 30.8027 72.7877 30.7402 72.9111L30.7373 72.918L30.7334 72.9258L27.7812 79.2832L27.4512 79.9941H31.2227C31.337 79.9941 31.4352 80.0637 31.4785 80.1621C31.4989 80.2085 31.5049 80.2565 31.4961 80.3027C31.4876 80.3468 31.4622 80.4088 31.3896 80.4795L31.3721 80.4971L21.2061 91.4111C21.1104 91.5139 20.9891 91.5243 20.876 91.4619C20.761 91.3984 20.7091 91.2899 20.7432 91.1631L20.8652 90.708L20.8633 90.707L22.7852 83.5928L22.9551 82.9619H19.7744C19.5788 82.9619 19.4436 82.7761 19.5264 82.5752L19.5303 82.5635L23.3262 72.6758C23.3672 72.5697 23.4703 72.501 23.583 72.501H24.0703V72.5H30.5059Z" stroke="#00D0FF" shape-rendering="crispEdges"/>
</g>
<g filter="url(#filter1_d_491_1298)">
<path fill-rule="evenodd" clip-rule="evenodd" d="M54.5829 72H61.5058C62.0538 72 62.475 72.5675 62.1868 73.1367L59.2348 79.4943H62.2231C62.8749 79.4943 63.3014 80.2896 62.7383 80.8377L52.5717 91.7517C52.0246 92.3394 51.0554 91.7965 51.2602 91.0337L51.2576 91.0329L53.3024 83.4622H50.7742C50.2404 83.4622 49.8387 82.9308 50.0639 82.3845L53.8593 72.4964C53.9772 72.1902 54.2707 72.0011 54.5829 72.0011L54.5829 72Z" fill="#00D0FF" fill-opacity="0.4" shape-rendering="crispEdges"/>
<path d="M61.5059 72.5C61.6043 72.5 61.6914 72.5506 61.7402 72.626C61.783 72.692 61.8027 72.7877 61.7402 72.9111L61.7373 72.918L61.7334 72.9258L58.7812 79.2832L58.4512 79.9941H62.2227C62.337 79.9941 62.4352 80.0637 62.4785 80.1621C62.4989 80.2085 62.5049 80.2565 62.4961 80.3027C62.4876 80.3468 62.4622 80.4088 62.3896 80.4795L62.3721 80.4971L52.2061 91.4111C52.1104 91.5139 51.9891 91.5243 51.876 91.4619C51.761 91.3984 51.7091 91.2899 51.7432 91.1631L51.8652 90.707L51.8633 90.7061L53.7852 83.5928L53.9551 82.9619H50.7744C50.5788 82.9619 50.4436 82.7761 50.5264 82.5752L50.5303 82.5635L54.3262 72.6758C54.3672 72.5697 54.4703 72.501 54.583 72.501H55.0713V72.5H61.5059Z" stroke="#00D0FF" shape-rendering="crispEdges"/>
</g>
<path d="M14 94C12.398 94 11 92.5627 11 90.924V81.076C11 79.4334 12.4018 78 14 78C15.602 78 17 79.4373 17 81.076V90.924C17 92.7719 15.8024 94 14 94Z" fill="#FDFEF8"/>
<path d="M41 94C39.398 94 38 92.5627 38 90.924V81.076C38 79.4334 39.4018 78 41 78C42.602 78 44 79.4373 44 81.076V90.924C44 92.7719 42.602 94 41 94Z" fill="#FDFEF8"/>
<path d="M68 94C66.398 94 65 92.5627 65 90.924V81.076C65 79.4334 66.4018 78 68 78C69.602 78 71 79.4373 71 81.076V90.924C71.0038 92.7719 69.602 94 68 94Z" fill="#FDFEF8"/>
<path d="M67 43H65.9609C65.4492 36.2969 59.832 31 52.9999 31C51.1249 31 49.2616 31.4102 47.5663 32.1875C44.1366 28.2461 39.2382 26 34.0003 26C24.4105 26 16.5473 33.5391 16.0273 43H15C6.7266 43 0 49.7305 0 58C0 66.2695 6.7266 73 15 73H67C75.2734 73 82 66.2695 82 58C82 49.7305 75.2734 43 67 43Z" fill="#FDFEF8"/>
<defs>
<filter id="filter0_d_491_1298" x="16" y="69" width="19" height="26" filterUnits="userSpaceOnUse" color-interpolation-filters="sRGB">
<feFlood flood-opacity="0" result="BackgroundImageFix"/>
<feColorMatrix in="SourceAlpha" type="matrix" values="0 0 0 0 0 0 0 0 0 0 0 0 0 0 0 0 0 0 127 0" result="hardAlpha"/>
<feOffset/>
<feGaussianBlur stdDeviation="1.5"/>
<feComposite in2="hardAlpha" operator="out"/>
<feColorMatrix type="matrix" values="0 0 0 0 0 0 0 0 0 0.816568 0 0 0 0 1 0 0 0 1 0"/>
<feBlend mode="normal" in2="BackgroundImageFix" result="effect1_dropShadow_491_1298"/>
<feBlend mode="normal" in="SourceGraphic" in2="effect1_dropShadow_491_1298" result="shape"/>
</filter>
<filter id="filter1_d_491_1298" x="47" y="69" width="19" height="26" filterUnits="userSpaceOnUse" color-interpolation-filters="sRGB">
<feFlood flood-opacity="0" result="BackgroundImageFix"/>
<feColorMatrix in="SourceAlpha" type="matrix" values="0 0 0 0 0 0 0 0 0 0 0 0 0 0 0 0 0 0 127 0" result="hardAlpha"/>
<feOffset/>
<feGaussianBlur stdDeviation="1.5"/>
<feComposite in2="hardAlpha" operator="out"/>
<feColorMatrix type="matrix" values="0 0 0 0 0 0 0 0 0 0.816568 0 0 0 0 1 0 0 0 1 0"/>
<feBlend mode="normal" in2="BackgroundImageFix" result="effect1_dropShadow_491_1298"/>
<feBlend mode="normal" in="SourceGraphic" in2="effect1_dropShadow_491_1298" result="shape"/>
</filter>
</defs>
</svg>
