<svg width="82" height="69" viewBox="0 0 82 69" fill="none" xmlns="http://www.w3.org/2000/svg">
<g filter="url(#filter0_d_491_1254)">
<path fill-rule="evenodd" clip-rule="evenodd" d="M23.5829 46H30.5058C31.0538 46 31.475 46.5675 31.1868 47.1367L28.2348 53.4943H31.2231C31.8749 53.4943 32.3014 54.2896 31.7383 54.8377L21.5717 65.7517C21.0246 66.3394 20.0554 65.7965 20.2602 65.0337L20.2576 65.0329L22.3024 57.4622H19.7742C19.2404 57.4622 18.8387 56.9308 19.0639 56.3845L22.8593 46.4964C22.9772 46.1902 23.2707 46.0011 23.5829 46.0011L23.5829 46Z" fill="#00D0FF" fill-opacity="0.4" shape-rendering="crispEdges"/>
<path d="M30.5059 46.5C30.6043 46.5 30.6914 46.5506 30.7402 46.626C30.783 46.692 30.8027 46.7877 30.7402 46.9111L30.7373 46.918L30.7334 46.9258L27.7812 53.2832L27.4512 53.9941H31.2227C31.337 53.9941 31.4352 54.0637 31.4785 54.1621C31.4989 54.2085 31.5049 54.2565 31.4961 54.3027C31.4876 54.3468 31.4622 54.4088 31.3896 54.4795L31.3721 54.4971L21.2061 65.4111C21.1104 65.5139 20.9891 65.5243 20.876 65.4619C20.761 65.3984 20.7091 65.2899 20.7432 65.1631L20.8652 64.708L20.8633 64.707L22.7852 57.5928L22.9551 56.9619H19.7744C19.5788 56.9619 19.4436 56.7761 19.5264 56.5752L19.5303 56.5635L23.3262 46.6758C23.3672 46.5697 23.4703 46.501 23.583 46.501H24.0703V46.5H30.5059Z" stroke="#00D0FF" shape-rendering="crispEdges"/>
</g>
<g filter="url(#filter1_d_491_1254)">
<path fill-rule="evenodd" clip-rule="evenodd" d="M54.5829 46H61.5058C62.0538 46 62.475 46.5675 62.1868 47.1367L59.2348 53.4943H62.2231C62.8749 53.4943 63.3014 54.2896 62.7383 54.8377L52.5717 65.7517C52.0246 66.3394 51.0554 65.7965 51.2602 65.0337L51.2576 65.0329L53.3024 57.4622H50.7742C50.2404 57.4622 49.8387 56.9308 50.0639 56.3845L53.8593 46.4964C53.9772 46.1902 54.2707 46.0011 54.5829 46.0011L54.5829 46Z" fill="#00D0FF" fill-opacity="0.4" shape-rendering="crispEdges"/>
<path d="M61.5059 46.5C61.6043 46.5 61.6914 46.5506 61.7402 46.626C61.783 46.692 61.8027 46.7877 61.7402 46.9111L61.7373 46.918L61.7334 46.9258L58.7812 53.2832L58.4512 53.9941H62.2227C62.337 53.9941 62.4352 54.0637 62.4785 54.1621C62.4989 54.2085 62.5049 54.2565 62.4961 54.3027C62.4876 54.3468 62.4622 54.4088 62.3896 54.4795L62.3721 54.4971L52.2061 65.4111C52.1104 65.5139 51.9891 65.5243 51.876 65.4619C51.761 65.3984 51.7091 65.2899 51.7432 65.1631L51.8652 64.707L51.8633 64.7061L53.7852 57.5928L53.9551 56.9619H50.7744C50.5788 56.9619 50.4436 56.7761 50.5264 56.5752L50.5303 56.5635L54.3262 46.6758C54.3672 46.5697 54.4703 46.501 54.583 46.501H55.0713V46.5H61.5059Z" stroke="#00D0FF" shape-rendering="crispEdges"/>
</g>
<path d="M14 68C12.398 68 11 66.5627 11 64.924V55.076C11 53.4334 12.4018 52 14 52C15.602 52 17 53.4373 17 55.076V64.924C17 66.7719 15.8024 68 14 68Z" fill="#FDFEF8"/>
<path d="M41 68C39.398 68 38 66.5627 38 64.924V55.076C38 53.4334 39.4018 52 41 52C42.602 52 44 53.4373 44 55.076V64.924C44 66.7719 42.602 68 41 68Z" fill="#FDFEF8"/>
<path d="M68 68C66.398 68 65 66.5627 65 64.924V55.076C65 53.4334 66.4018 52 68 52C69.602 52 71 53.4373 71 55.076V64.924C71.0038 66.7719 69.602 68 68 68Z" fill="#FDFEF8"/>
<path d="M67 17H65.9609C65.4492 10.2969 59.832 5 52.9999 5C51.1249 5 49.2616 5.41016 47.5663 6.1875C44.1366 2.2461 39.2382 0 34.0003 0C24.4105 0 16.5473 7.5391 16.0273 17H15C6.7266 17 0 23.7305 0 32C0 40.2695 6.7266 47 15 47H67C75.2734 47 82 40.2695 82 32C82 23.7305 75.2734 17 67 17Z" fill="#FDFEF8"/>
<defs>
<filter id="filter0_d_491_1254" x="16" y="43" width="19" height="26" filterUnits="userSpaceOnUse" color-interpolation-filters="sRGB">
<feFlood flood-opacity="0" result="BackgroundImageFix"/>
<feColorMatrix in="SourceAlpha" type="matrix" values="0 0 0 0 0 0 0 0 0 0 0 0 0 0 0 0 0 0 127 0" result="hardAlpha"/>
<feOffset/>
<feGaussianBlur stdDeviation="1.5"/>
<feComposite in2="hardAlpha" operator="out"/>
<feColorMatrix type="matrix" values="0 0 0 0 0 0 0 0 0 0.816568 0 0 0 0 1 0 0 0 1 0"/>
<feBlend mode="normal" in2="BackgroundImageFix" result="effect1_dropShadow_491_1254"/>
<feBlend mode="normal" in="SourceGraphic" in2="effect1_dropShadow_491_1254" result="shape"/>
</filter>
<filter id="filter1_d_491_1254" x="47" y="43" width="19" height="26" filterUnits="userSpaceOnUse" color-interpolation-filters="sRGB">
<feFlood flood-opacity="0" result="BackgroundImageFix"/>
<feColorMatrix in="SourceAlpha" type="matrix" values="0 0 0 0 0 0 0 0 0 0 0 0 0 0 0 0 0 0 127 0" result="hardAlpha"/>
<feOffset/>
<feGaussianBlur stdDeviation="1.5"/>
<feComposite in2="hardAlpha" operator="out"/>
<feColorMatrix type="matrix" values="0 0 0 0 0 0 0 0 0 0.816568 0 0 0 0 1 0 0 0 1 0"/>
<feBlend mode="normal" in2="BackgroundImageFix" result="effect1_dropShadow_491_1254"/>
<feBlend mode="normal" in="SourceGraphic" in2="effect1_dropShadow_491_1254" result="shape"/>
</filter>
</defs>
</svg>
