<svg  viewBox="0 0 199 18" fill="none" preserveAspectRatio='none' xmlns="http://www.w3.org/2000/svg">
<path d="M189.524 14.2139C189.784 14.2139 190.045 14.2139 190.313 14.2139C190.313 15.3865 190.313 16.5592 190.313 17.7674C190.053 17.7674 189.792 17.7674 189.524 17.7674C189.524 16.5948 189.524 15.4221 189.524 14.2139Z" fill="rgb(136, 206, 206)"/>
<path d="M183.996 14.2139C184.257 14.2139 184.517 14.2139 184.786 14.2139C184.786 15.3865 184.786 16.5592 184.786 17.7674C184.525 17.7674 184.265 17.7674 183.996 17.7674C183.996 16.5948 183.996 15.4221 183.996 14.2139Z" fill="rgb(136, 206, 206)"/>
<path d="M180.837 14.2139C181.098 14.2139 181.358 14.2139 181.627 14.2139C181.627 15.3865 181.627 16.5592 181.627 17.7674C181.366 17.7674 181.106 17.7674 180.837 17.7674C180.837 16.5948 180.837 15.4221 180.837 14.2139Z" fill="rgb(136, 206, 206)"/>
<path d="M161.885 14.2139C162.146 14.2139 162.406 14.2139 162.675 14.2139C162.675 15.3865 162.675 16.5592 162.675 17.7674C162.414 17.7674 162.153 17.7674 161.885 17.7674C161.885 16.5948 161.885 15.4221 161.885 14.2139Z" fill="rgb(136, 206, 206)"/>
<path d="M113.714 14.2139C113.975 14.2139 114.235 14.2139 114.504 14.2139C114.504 15.3865 114.504 16.5592 114.504 17.7674C114.243 17.7674 113.983 17.7674 113.714 17.7674C113.714 16.5948 113.714 15.4221 113.714 14.2139Z" fill="rgb(136, 206, 206)"/>
<path d="M99.5 14.2139C100.282 14.2139 101.064 14.2139 101.869 14.2139C101.869 15.3865 101.869 16.5592 101.869 17.7674C101.087 17.7674 100.305 17.7674 99.5 17.7674C99.5 16.5948 99.5 15.4221 99.5 14.2139Z" fill="rgb(136, 206, 206)"/>
<path d="M85.2857 14.2139C85.5463 14.2139 85.8069 14.2139 86.0754 14.2139C86.0754 15.3865 86.0754 16.5592 86.0754 17.7674C85.8148 17.7674 85.5542 17.7674 85.2857 17.7674C85.2857 16.5948 85.2857 15.4221 85.2857 14.2139Z" fill="rgb(136, 206, 206)"/>
<path d="M79.7579 14.2139C80.0185 14.2139 80.2791 14.2139 80.5476 14.2139C80.5476 15.3865 80.5476 16.5592 80.5476 17.7674C80.287 17.7674 80.0264 17.7674 79.7579 17.7674C79.7579 16.5948 79.7579 15.4221 79.7579 14.2139Z" fill="rgb(136, 206, 206)"/>
<path d="M73.4405 14.2139C73.7011 14.2139 73.9617 14.2139 74.2302 14.2139C74.2302 15.3865 74.2302 16.5592 74.2302 17.7674C73.9696 17.7674 73.709 17.7674 73.4405 17.7674C73.4405 16.5948 73.4405 15.4221 73.4405 14.2139Z" fill="rgb(136, 206, 206)"/>
<path d="M71.8611 14.2139C72.1217 14.2139 72.3823 14.2139 72.6508 14.2139C72.6508 15.3865 72.6508 16.5592 72.6508 17.7674C72.3902 17.7674 72.1296 17.7674 71.8611 17.7674C71.8611 16.5948 71.8611 15.4221 71.8611 14.2139Z" fill="rgb(136, 206, 206)"/>
<path d="M56.8571 14.2139C57.1177 14.2139 57.3783 14.2139 57.6468 14.2139C57.6468 15.3865 57.6468 16.5592 57.6468 17.7674C57.3862 17.7674 57.1256 17.7674 56.8571 17.7674C56.8571 16.5948 56.8571 15.4221 56.8571 14.2139Z" fill="rgb(136, 206, 206)"/>
<path d="M51.3293 14.2139C51.5899 14.2139 51.8505 14.2139 52.119 14.2139C52.119 15.3865 52.119 16.5592 52.119 17.7674C51.8584 17.7674 51.5978 17.7674 51.3293 17.7674C51.3293 16.5948 51.3293 15.4221 51.3293 14.2139Z" fill="rgb(136, 206, 206)"/>
<path d="M48.1707 14.2139C48.4312 14.2139 48.6918 14.2139 48.9603 14.2139C48.9603 15.3865 48.9603 16.5592 48.9603 17.7674C48.6997 17.7674 48.4391 17.7674 48.1707 17.7674C48.1707 16.5948 48.1707 15.4221 48.1707 14.2139Z" fill="rgb(136, 206, 206)"/>
<path d="M29.2183 14.2139C29.4789 14.2139 29.7395 14.2139 30.0079 14.2139C30.0079 15.3865 30.0079 16.5592 30.0079 17.7674C29.7473 17.7674 29.4868 17.7674 29.2183 17.7674C29.2183 16.5948 29.2183 15.4221 29.2183 14.2139Z" fill="rgb(136, 206, 206)"/>
<path d="M188.734 10.6611C188.995 10.6611 189.255 10.6611 189.524 10.6611C189.524 11.8338 189.524 13.0065 189.524 14.2147C189.263 14.2147 189.003 14.2147 188.734 14.2147C188.734 13.042 188.734 11.8693 188.734 10.6611Z" fill="rgb(136, 206, 206)"/>
<path d="M156.357 10.6611C156.878 10.6611 157.4 10.6611 157.937 10.6611C157.937 11.8338 157.937 13.0065 157.937 14.2147C158.197 14.2147 158.458 14.2147 158.726 14.2147C158.726 15.3874 158.726 16.5601 158.726 17.7683C157.944 17.7683 157.163 17.7683 156.357 17.7683C156.357 15.4229 156.357 13.0776 156.357 10.6611Z" fill="rgb(136, 206, 206)"/>
<path d="M120.032 10.6611C120.814 10.6611 121.595 10.6611 122.401 10.6611C122.401 11.8338 122.401 13.0065 122.401 14.2147C121.619 14.2147 120.837 14.2147 120.032 14.2147C120.032 13.042 120.032 11.8693 120.032 10.6611Z" fill="rgb(136, 206, 206)"/>
<path d="M102.659 10.6611C102.919 10.6611 103.18 10.6611 103.448 10.6611C103.448 13.0065 103.448 15.3518 103.448 17.7683C103.188 17.7683 102.927 17.7683 102.659 17.7683C102.659 15.4229 102.659 13.0776 102.659 10.6611Z" fill="rgb(136, 206, 206)"/>
<path d="M84.496 10.6611C84.7566 10.6611 85.0172 10.6611 85.2857 10.6611C85.2857 11.8338 85.2857 13.0065 85.2857 14.2147C85.0251 14.2147 84.7645 14.2147 84.496 14.2147C84.496 13.042 84.496 11.8693 84.496 10.6611Z" fill="rgb(136, 206, 206)"/>
<path d="M72.6508 10.6611C72.9114 10.6611 73.172 10.6611 73.4405 10.6611C73.4405 11.8338 73.4405 13.0065 73.4405 14.2147C73.1799 14.2147 72.9193 14.2147 72.6508 14.2147C72.6508 13.042 72.6508 11.8693 72.6508 10.6611Z" fill="rgb(136, 206, 206)"/>
<path d="M71.0714 10.6611C71.332 10.6611 71.5926 10.6611 71.8611 10.6611C71.8611 11.8338 71.8611 13.0065 71.8611 14.2147C71.6005 14.2147 71.3399 14.2147 71.0714 14.2147C71.0714 13.042 71.0714 11.8693 71.0714 10.6611Z" fill="rgb(136, 206, 206)"/>
<path d="M56.0674 10.6611C56.328 10.6611 56.5886 10.6611 56.8571 10.6611C56.8571 11.8338 56.8571 13.0065 56.8571 14.2147C56.5965 14.2147 56.3359 14.2147 56.0674 14.2147C56.0674 13.042 56.0674 11.8693 56.0674 10.6611Z" fill="rgb(136, 206, 206)"/>
<path d="M23.6905 10.6611C24.2117 10.6611 24.7329 10.6611 25.2699 10.6611C25.2699 11.8338 25.2699 13.0065 25.2699 14.2147C25.5305 14.2147 25.791 14.2147 26.0595 14.2147C26.0595 15.3874 26.0595 16.5601 26.0595 17.7683C25.2778 17.7683 24.496 17.7683 23.6905 17.7683C23.6905 15.4229 23.6905 13.0776 23.6905 10.6611Z" fill="rgb(136, 206, 206)"/>
<path d="M191.103 7.10742C191.364 7.10742 191.624 7.10742 191.893 7.10742C191.893 8.2801 191.893 9.45278 191.893 10.661C192.414 10.661 192.935 10.661 193.472 10.661C193.472 13.0063 193.472 15.3517 193.472 17.7681C192.69 17.7681 191.909 17.7681 191.103 17.7681C191.103 16.5955 191.103 15.4228 191.103 14.2146C190.843 14.2146 190.582 14.2146 190.313 14.2146C190.313 13.0419 190.313 11.8692 190.313 10.661C190.574 10.661 190.835 10.661 191.103 10.661C191.103 9.48831 191.103 8.31564 191.103 7.10742Z" fill="rgb(136, 206, 206)"/>
<path d="M178.468 7.10742C178.729 7.10742 178.989 7.10742 179.258 7.10742C179.258 10.6255 179.258 14.1435 179.258 17.7681C178.737 17.7681 178.216 17.7681 177.679 17.7681C177.679 16.5955 177.679 15.4228 177.679 14.2146C177.939 14.2146 178.2 14.2146 178.468 14.2146C178.468 11.8692 178.468 9.52385 178.468 7.10742Z" fill="rgb(136, 206, 206)"/>
<path d="M163.464 7.10742C164.507 7.10742 165.549 7.10742 166.623 7.10742C166.623 10.6255 166.623 14.1435 166.623 17.7681C165.841 17.7681 165.059 17.7681 164.254 17.7681C164.254 16.5955 164.254 15.4228 164.254 14.2146C163.733 14.2146 163.212 14.2146 162.675 14.2146C162.675 13.0419 162.675 11.8692 162.675 10.661C162.935 10.661 163.196 10.661 163.464 10.661C163.464 9.48831 163.464 8.31564 163.464 7.10742ZM164.254 10.661C164.254 11.8337 164.254 13.0063 164.254 14.2146C164.515 14.2146 164.775 14.2146 165.044 14.2146C165.044 13.0419 165.044 11.8692 165.044 10.661C164.783 10.661 164.522 10.661 164.254 10.661Z" fill="rgb(136, 206, 206)"/>
<path d="M157.937 7.10742C158.197 7.10742 158.458 7.10742 158.726 7.10742C158.726 8.2801 158.726 9.45278 158.726 10.661C158.466 10.661 158.205 10.661 157.937 10.661C157.937 9.48831 157.937 8.31564 157.937 7.10742Z" fill="rgb(136, 206, 206)"/>
<path d="M108.976 7.10742C109.237 7.10742 109.497 7.10742 109.766 7.10742C109.766 8.2801 109.766 9.45278 109.766 10.661C110.026 10.661 110.287 10.661 110.556 10.661C110.556 11.8337 110.556 13.0063 110.556 14.2146C110.816 14.2146 111.077 14.2146 111.345 14.2146C111.345 15.3872 111.345 16.5599 111.345 17.7681C110.563 17.7681 109.782 17.7681 108.976 17.7681C108.976 16.5955 108.976 15.4228 108.976 14.2146C108.716 14.2146 108.455 14.2146 108.187 14.2146C108.187 13.0419 108.187 11.8692 108.187 10.661C108.447 10.661 108.708 10.661 108.976 10.661C108.976 9.48831 108.976 8.31564 108.976 7.10742Z" fill="rgb(136, 206, 206)"/>
<path d="M106.607 7.10742C106.868 7.10742 107.128 7.10742 107.397 7.10742C107.397 8.2801 107.397 9.45278 107.397 10.661C107.136 10.661 106.876 10.661 106.607 10.661C106.607 9.48831 106.607 8.31564 106.607 7.10742Z" fill="rgb(136, 206, 206)"/>
<path d="M58.4365 7.10742C58.6971 7.10742 58.9577 7.10742 59.2262 7.10742C59.2262 8.2801 59.2262 9.45278 59.2262 10.661C59.7474 10.661 60.2686 10.661 60.8056 10.661C60.8056 13.0063 60.8056 15.3517 60.8056 17.7681C60.0238 17.7681 59.242 17.7681 58.4365 17.7681C58.4365 16.5955 58.4365 15.4228 58.4365 14.2146C58.1759 14.2146 57.9153 14.2146 57.6469 14.2146C57.6469 13.0419 57.6469 11.8692 57.6469 10.661C57.9074 10.661 58.168 10.661 58.4365 10.661C58.4365 9.48831 58.4365 8.31564 58.4365 7.10742Z" fill="rgb(136, 206, 206)"/>
<path d="M45.8016 7.10742C46.0622 7.10742 46.3228 7.10742 46.5913 7.10742C46.5913 10.6255 46.5913 14.1435 46.5913 17.7681C46.0701 17.7681 45.5489 17.7681 45.0119 17.7681C45.0119 16.5955 45.0119 15.4228 45.0119 14.2146C45.2725 14.2146 45.5331 14.2146 45.8016 14.2146C45.8016 11.8692 45.8016 9.52385 45.8016 7.10742Z" fill="rgb(136, 206, 206)"/>
<path d="M30.7976 7.10742C31.84 7.10742 32.8824 7.10742 33.9563 7.10742C33.9563 10.6255 33.9563 14.1435 33.9563 17.7681C33.1746 17.7681 32.3928 17.7681 31.5873 17.7681C31.5873 16.5955 31.5873 15.4228 31.5873 14.2146C31.0661 14.2146 30.5449 14.2146 30.0079 14.2146C30.0079 13.0419 30.0079 11.8692 30.0079 10.661C30.2685 10.661 30.5291 10.661 30.7976 10.661C30.7976 9.48831 30.7976 8.31564 30.7976 7.10742ZM31.5873 10.661C31.5873 11.8337 31.5873 13.0063 31.5873 14.2146C31.8479 14.2146 32.1085 14.2146 32.377 14.2146C32.377 13.0419 32.377 11.8692 32.377 10.661C32.1164 10.661 31.8558 10.661 31.5873 10.661Z" fill="rgb(136, 206, 206)"/>
<path d="M25.2698 7.10742C25.5304 7.10742 25.791 7.10742 26.0595 7.10742C26.0595 8.2801 26.0595 9.45278 26.0595 10.661C25.7989 10.661 25.5383 10.661 25.2698 10.661C25.2698 9.48831 25.2698 8.31564 25.2698 7.10742Z" fill="rgb(136, 206, 206)"/>
<path d="M193.472 3.55371C193.733 3.55371 193.993 3.55371 194.262 3.55371C194.262 4.72639 194.262 5.89907 194.262 7.10728C194.001 7.10728 193.741 7.10728 193.472 7.10728C193.472 5.9346 193.472 4.76192 193.472 3.55371Z" fill="rgb(136, 206, 206)"/>
<path d="M191.893 3.55371C192.153 3.55371 192.414 3.55371 192.683 3.55371C192.683 4.72639 192.683 5.89907 192.683 7.10728C192.422 7.10728 192.161 7.10728 191.893 7.10728C191.893 5.9346 191.893 4.76192 191.893 3.55371Z" fill="rgb(136, 206, 206)"/>
<path d="M181.627 3.55371C182.669 3.55371 183.712 3.55371 184.786 3.55371C184.786 4.72639 184.786 5.89907 184.786 7.10728C184.525 7.10728 184.264 7.10728 183.996 7.10728C183.996 9.45264 183.996 11.798 183.996 14.2144C183.214 14.2144 182.432 14.2144 181.627 14.2144C181.627 10.6964 181.627 7.17835 181.627 3.55371Z" fill="rgb(136, 206, 206)"/>
<path d="M180.048 3.55371C180.308 3.55371 180.569 3.55371 180.837 3.55371C180.837 4.72639 180.837 5.89907 180.837 7.10728C180.577 7.10728 180.316 7.10728 180.048 7.10728C180.048 5.9346 180.048 4.76192 180.048 3.55371Z" fill="rgb(136, 206, 206)"/>
<path d="M142.933 3.55371C143.714 3.55371 144.496 3.55371 145.302 3.55371C145.302 4.72639 145.302 5.89907 145.302 7.10728C144.52 7.10728 143.738 7.10728 142.933 7.10728C142.933 5.9346 142.933 4.76192 142.933 3.55371Z" fill="rgb(136, 206, 206)"/>
<path d="M81.3373 3.55371C82.1191 3.55371 82.9009 3.55371 83.7063 3.55371C83.7063 7.07175 83.7063 10.5898 83.7063 14.2144C82.664 14.2144 81.6216 14.2144 80.5476 14.2144C80.5476 13.0417 80.5476 11.8691 80.5476 10.6609C80.8082 10.6609 81.0688 10.6609 81.3373 10.6609C81.3373 8.3155 81.3373 5.97014 81.3373 3.55371Z" fill="rgb(136, 206, 206)"/>
<path d="M75.8095 3.55371C76.0701 3.55371 76.3307 3.55371 76.5992 3.55371C76.5992 4.72639 76.5992 5.89907 76.5992 7.10728C76.3386 7.10728 76.078 7.10728 75.8095 7.10728C75.8095 5.9346 75.8095 4.76192 75.8095 3.55371Z" fill="rgb(136, 206, 206)"/>
<path d="M60.8055 3.55371C61.0661 3.55371 61.3267 3.55371 61.5952 3.55371C61.5952 4.72639 61.5952 5.89907 61.5952 7.10728C61.3346 7.10728 61.074 7.10728 60.8055 7.10728C60.8055 5.9346 60.8055 4.76192 60.8055 3.55371Z" fill="rgb(136, 206, 206)"/>
<path d="M59.2262 3.55371C59.4868 3.55371 59.7474 3.55371 60.0159 3.55371C60.0159 4.72639 60.0159 5.89907 60.0159 7.10728C59.7553 7.10728 59.4947 7.10728 59.2262 7.10728C59.2262 5.9346 59.2262 4.76192 59.2262 3.55371Z" fill="rgb(136, 206, 206)"/>
<path d="M48.9603 3.55371C50.0027 3.55371 51.0451 3.55371 52.1191 3.55371C52.1191 4.72639 52.1191 5.89907 52.1191 7.10728C51.8585 7.10728 51.5979 7.10728 51.3294 7.10728C51.3294 9.45264 51.3294 11.798 51.3294 14.2144C50.5476 14.2144 49.7658 14.2144 48.9603 14.2144C48.9603 10.6964 48.9603 7.17835 48.9603 3.55371Z" fill="rgb(136, 206, 206)"/>
<path d="M47.381 3.55371C47.6416 3.55371 47.9022 3.55371 48.1707 3.55371C48.1707 4.72639 48.1707 5.89907 48.1707 7.10728C47.9101 7.10728 47.6495 7.10728 47.381 7.10728C47.381 5.9346 47.381 4.76192 47.381 3.55371Z" fill="rgb(136, 206, 206)"/>
<path d="M10.2659 3.55371C11.0477 3.55371 11.8294 3.55371 12.6349 3.55371C12.6349 4.72639 12.6349 5.89907 12.6349 7.10728C11.8531 7.10728 11.0713 7.10728 10.2659 7.10728C10.2659 5.9346 10.2659 4.76192 10.2659 3.55371Z" fill="rgb(136, 206, 206)"/>
<path d="M194.262 0C195.565 0 196.868 0 198.21 0C198.21 1.17268 198.21 2.34536 198.21 3.55357C197.95 3.55357 197.689 3.55357 197.421 3.55357C197.421 4.72625 197.421 5.89893 197.421 7.10714C197.942 7.10714 198.463 7.10714 199 7.10714C199 9.4525 199 11.7979 199 14.2143C198.218 14.2143 197.436 14.2143 196.631 14.2143C196.631 15.387 196.631 16.5596 196.631 17.7679C196.11 17.7679 195.589 17.7679 195.052 17.7679C195.052 15.4225 195.052 13.0771 195.052 10.6607C194.791 10.6607 194.53 10.6607 194.262 10.6607C194.262 9.48803 194.262 8.31535 194.262 7.10714C194.522 7.10714 194.783 7.10714 195.052 7.10714C195.052 5.93446 195.052 4.76178 195.052 3.55357C194.791 3.55357 194.53 3.55357 194.262 3.55357C194.262 2.38089 194.262 1.20821 194.262 0Z" fill="rgb(136, 206, 206)"/>
<path d="M192.683 0C192.943 0 193.204 0 193.472 0C193.472 1.17268 193.472 2.34536 193.472 3.55357C193.212 3.55357 192.951 3.55357 192.683 3.55357C192.683 2.38089 192.683 1.20821 192.683 0Z" fill="rgb(136, 206, 206)"/>
<path d="M191.103 0C191.364 0 191.624 0 191.893 0C191.893 1.17268 191.893 2.34536 191.893 3.55357C191.632 3.55357 191.372 3.55357 191.103 3.55357C191.103 2.38089 191.103 1.20821 191.103 0Z" fill="rgb(136, 206, 206)"/>
<path d="M186.365 0C187.668 0 188.971 0 190.314 0C190.314 1.17268 190.314 2.34536 190.314 3.55357C190.574 3.55357 190.835 3.55357 191.103 3.55357C191.103 4.72625 191.103 5.89893 191.103 7.10714C190.843 7.10714 190.582 7.10714 190.314 7.10714C190.314 8.27982 190.314 9.4525 190.314 10.6607C190.053 10.6607 189.792 10.6607 189.524 10.6607C189.524 9.48803 189.524 8.31535 189.524 7.10714C189.263 7.10714 189.003 7.10714 188.734 7.10714C188.734 8.27982 188.734 9.4525 188.734 10.6607C188.474 10.6607 188.213 10.6607 187.944 10.6607C187.944 11.8334 187.944 13.0061 187.944 14.2143C188.205 14.2143 188.466 14.2143 188.734 14.2143C188.734 15.387 188.734 16.5596 188.734 17.7679C187.952 17.7679 187.171 17.7679 186.365 17.7679C186.365 11.9045 186.365 6.04107 186.365 0Z" fill="rgb(136, 206, 206)"/>
<path d="M184.786 0C185.046 0 185.307 0 185.575 0C185.575 1.17268 185.575 2.34536 185.575 3.55357C185.315 3.55357 185.054 3.55357 184.786 3.55357C184.786 2.38089 184.786 1.20821 184.786 0Z" fill="rgb(136, 206, 206)"/>
<path d="M179.258 0C179.519 0 179.779 0 180.048 0C180.048 1.17268 180.048 2.34536 180.048 3.55357C179.787 3.55357 179.526 3.55357 179.258 3.55357C179.258 2.38089 179.258 1.20821 179.258 0Z" fill="rgb(136, 206, 206)"/>
<path d="M172.94 0C173.201 0 173.462 0 173.73 0C173.73 3.51803 173.73 7.03607 173.73 10.6607C173.991 10.6607 174.251 10.6607 174.52 10.6607C174.52 9.48803 174.52 8.31535 174.52 7.10714C174.78 7.10714 175.041 7.10714 175.31 7.10714C175.31 5.93446 175.31 4.76178 175.31 3.55357C175.57 3.55357 175.831 3.55357 176.099 3.55357C176.099 2.38089 176.099 1.20821 176.099 0C176.36 0 176.62 0 176.889 0C176.889 1.17268 176.889 2.34536 176.889 3.55357C177.41 3.55357 177.931 3.55357 178.468 3.55357C178.468 4.72625 178.468 5.89893 178.468 7.10714C177.686 7.10714 176.905 7.10714 176.099 7.10714C176.099 8.27982 176.099 9.4525 176.099 10.6607C176.36 10.6607 176.62 10.6607 176.889 10.6607C176.889 13.0061 176.889 15.3514 176.889 17.7679C175.586 17.7679 174.283 17.7679 172.94 17.7679C172.94 11.9045 172.94 6.04107 172.94 0ZM175.31 10.6607C175.31 11.8334 175.31 13.0061 175.31 14.2143C175.57 14.2143 175.831 14.2143 176.099 14.2143C176.099 13.0416 176.099 11.8689 176.099 10.6607C175.839 10.6607 175.578 10.6607 175.31 10.6607Z" fill="rgb(136, 206, 206)"/>
<path d="M168.202 0C169.245 0 170.287 0 171.361 0C171.361 1.17268 171.361 2.34536 171.361 3.55357C171.101 3.55357 170.84 3.55357 170.571 3.55357C170.571 7.07161 170.571 10.5896 170.571 14.2143C170.311 14.2143 170.05 14.2143 169.782 14.2143C169.782 15.387 169.782 16.5596 169.782 17.7679C169.521 17.7679 169.261 17.7679 168.992 17.7679C168.992 16.5952 168.992 15.4225 168.992 14.2143C168.731 14.2143 168.471 14.2143 168.202 14.2143C168.202 13.0416 168.202 11.8689 168.202 10.6607C167.942 10.6607 167.681 10.6607 167.413 10.6607C167.413 9.48803 167.413 8.31535 167.413 7.10714C167.152 7.10714 166.892 7.10714 166.623 7.10714C166.623 5.93446 166.623 4.76178 166.623 3.55357C167.144 3.55357 167.665 3.55357 168.202 3.55357C168.202 2.38089 168.202 1.20821 168.202 0ZM168.992 3.55357C168.992 4.72625 168.992 5.89893 168.992 7.10714C169.253 7.10714 169.513 7.10714 169.782 7.10714C169.782 5.93446 169.782 4.76178 169.782 3.55357C169.521 3.55357 169.261 3.55357 168.992 3.55357ZM168.202 7.10714C168.202 8.27982 168.202 9.4525 168.202 10.6607C168.463 10.6607 168.724 10.6607 168.992 10.6607C168.992 9.48803 168.992 8.31535 168.992 7.10714C168.731 7.10714 168.471 7.10714 168.202 7.10714Z" fill="rgb(136, 206, 206)"/>
<path d="M163.464 0C164.246 0 165.028 0 165.833 0C165.833 1.17268 165.833 2.34536 165.833 3.55357C165.052 3.55357 164.27 3.55357 163.464 3.55357C163.464 2.38089 163.464 1.20821 163.464 0Z" fill="rgb(136, 206, 206)"/>
<path d="M161.885 0C162.146 0 162.406 0 162.675 0C162.675 2.34536 162.675 4.69071 162.675 7.10714C162.414 7.10714 162.153 7.10714 161.885 7.10714C161.885 4.76178 161.885 2.41643 161.885 0Z" fill="rgb(136, 206, 206)"/>
<path d="M159.516 0C160.037 0 160.558 0 161.095 0C161.095 3.51803 161.095 7.03607 161.095 10.6607C161.356 10.6607 161.616 10.6607 161.885 10.6607C161.885 11.8334 161.885 13.0061 161.885 14.2143C161.624 14.2143 161.364 14.2143 161.095 14.2143C161.095 15.387 161.095 16.5596 161.095 17.7679C160.574 17.7679 160.053 17.7679 159.516 17.7679C159.516 11.9045 159.516 6.04107 159.516 0Z" fill="rgb(136, 206, 206)"/>
<path d="M153.988 0C154.77 0 155.552 0 156.357 0C156.357 1.17268 156.357 2.34536 156.357 3.55357C156.618 3.55357 156.878 3.55357 157.147 3.55357C157.147 4.72625 157.147 5.89893 157.147 7.10714C156.886 7.10714 156.626 7.10714 156.357 7.10714C156.357 8.27982 156.357 9.4525 156.357 10.6607C156.097 10.6607 155.836 10.6607 155.567 10.6607C155.567 9.48803 155.567 8.31536 155.567 7.10714C155.307 7.10714 155.046 7.10714 154.778 7.10714C154.778 5.93446 154.778 4.76178 154.778 3.55357C154.517 3.55357 154.257 3.55357 153.988 3.55357C153.988 2.38089 153.988 1.20821 153.988 0Z" fill="rgb(136, 206, 206)"/>
<path d="M150.829 0C151.09 0 151.351 0 151.619 0C151.619 1.17268 151.619 2.34536 151.619 3.55357C151.358 3.55357 151.098 3.55357 150.829 3.55357C150.829 2.38089 150.829 1.20821 150.829 0Z" fill="rgb(136, 206, 206)"/>
<path d="M146.091 0C146.873 0 147.655 0 148.46 0C148.46 1.17268 148.46 2.34536 148.46 3.55357C148.721 3.55357 148.981 3.55357 149.25 3.55357C149.25 2.38089 149.25 1.20821 149.25 0C149.511 0 149.771 0 150.04 0C150.04 1.17268 150.04 2.34536 150.04 3.55357C150.3 3.55357 150.561 3.55357 150.829 3.55357C150.829 4.72625 150.829 5.89893 150.829 7.10714C151.09 7.10714 151.351 7.10714 151.619 7.10714C151.619 5.93446 151.619 4.76178 151.619 3.55357C151.88 3.55357 152.14 3.55357 152.409 3.55357C152.409 4.72625 152.409 5.89893 152.409 7.10714C152.669 7.10714 152.93 7.10714 153.198 7.10714C153.198 5.93446 153.198 4.76178 153.198 3.55357C153.459 3.55357 153.72 3.55357 153.988 3.55357C153.988 5.89893 153.988 8.24428 153.988 10.6607C154.509 10.6607 155.03 10.6607 155.567 10.6607C155.567 13.0061 155.567 15.3514 155.567 17.7679C154.525 17.7679 153.483 17.7679 152.409 17.7679C152.409 16.5952 152.409 15.4225 152.409 14.2143C151.888 14.2143 151.366 14.2143 150.829 14.2143C150.829 15.387 150.829 16.5596 150.829 17.7679C150.569 17.7679 150.308 17.7679 150.04 17.7679C150.04 14.2498 150.04 10.7318 150.04 7.10714C149.258 7.10714 148.476 7.10714 147.671 7.10714C147.671 8.27982 147.671 9.4525 147.671 10.6607C148.192 10.6607 148.713 10.6607 149.25 10.6607C149.25 11.8334 149.25 13.0061 149.25 14.2143C148.989 14.2143 148.729 14.2143 148.46 14.2143C148.46 15.387 148.46 16.5596 148.46 17.7679C147.679 17.7679 146.897 17.7679 146.091 17.7679C146.091 11.9045 146.091 6.04107 146.091 0ZM153.198 10.6607C153.198 11.8334 153.198 13.0061 153.198 14.2143C153.459 14.2143 153.72 14.2143 153.988 14.2143C153.988 13.0416 153.988 11.8689 153.988 10.6607C153.727 10.6607 153.467 10.6607 153.198 10.6607Z" fill="rgb(136, 206, 206)"/>
<path d="M120.821 0C121.343 0 121.864 0 122.401 0C122.401 1.17268 122.401 2.34536 122.401 3.55357C123.183 3.55357 123.964 3.55357 124.77 3.55357C124.77 4.72625 124.77 5.89893 124.77 7.10714C125.291 7.10714 125.812 7.10714 126.349 7.10714C126.349 5.93446 126.349 4.76178 126.349 3.55357C126.089 3.55357 125.828 3.55357 125.56 3.55357C125.56 2.38089 125.56 1.20821 125.56 0C126.341 0 127.123 0 127.929 0C127.929 1.17268 127.929 2.34536 127.929 3.55357C128.189 3.55357 128.45 3.55357 128.718 3.55357C128.718 2.38089 128.718 1.20821 128.718 0C128.979 0 129.239 0 129.508 0C129.508 3.51803 129.508 7.03607 129.508 10.6607C129.769 10.6607 130.029 10.6607 130.298 10.6607C130.298 7.14268 130.298 3.62464 130.298 0C132.122 0 133.946 0 135.825 0C135.825 1.17268 135.825 2.34536 135.825 3.55357C136.086 3.55357 136.347 3.55357 136.615 3.55357C136.615 2.38089 136.615 1.20821 136.615 0C136.876 0 137.136 0 137.405 0C137.405 2.34536 137.405 4.69071 137.405 7.10714C137.144 7.10714 136.884 7.10714 136.615 7.10714C136.615 8.27982 136.615 9.4525 136.615 10.6607C137.136 10.6607 137.657 10.6607 138.194 10.6607C138.194 7.14268 138.194 3.62464 138.194 0C138.455 0 138.716 0 138.984 0C138.984 2.34536 138.984 4.69071 138.984 7.10714C139.245 7.10714 139.505 7.10714 139.774 7.10714C139.774 4.76178 139.774 2.41643 139.774 0C140.816 0 141.859 0 142.933 0C142.933 1.17268 142.933 2.34536 142.933 3.55357C142.151 3.55357 141.369 3.55357 140.563 3.55357C140.563 4.72625 140.563 5.89893 140.563 7.10714C140.824 7.10714 141.085 7.10714 141.353 7.10714C141.353 8.27982 141.353 9.4525 141.353 10.6607C142.135 10.6607 142.917 10.6607 143.722 10.6607C143.722 11.8334 143.722 13.0061 143.722 14.2143C143.983 14.2143 144.243 14.2143 144.512 14.2143C144.512 15.387 144.512 16.5596 144.512 17.7679C143.991 17.7679 143.47 17.7679 142.933 17.7679C142.933 16.5952 142.933 15.4225 142.933 14.2143C142.151 14.2143 141.369 14.2143 140.563 14.2143C140.563 13.0416 140.563 11.8689 140.563 10.6607C140.042 10.6607 139.521 10.6607 138.984 10.6607C138.984 11.8334 138.984 13.0061 138.984 14.2143C139.245 14.2143 139.505 14.2143 139.774 14.2143C139.774 15.387 139.774 16.5596 139.774 17.7679C138.992 17.7679 138.21 17.7679 137.405 17.7679C137.405 16.5952 137.405 15.4225 137.405 14.2143C137.144 14.2143 136.884 14.2143 136.615 14.2143C136.615 15.387 136.615 16.5596 136.615 17.7679C136.354 17.7679 136.094 17.7679 135.825 17.7679C135.825 14.2498 135.825 10.7318 135.825 7.10714C135.565 7.10714 135.304 7.10714 135.036 7.10714C135.036 10.6252 135.036 14.1432 135.036 17.7679C133.212 17.7679 131.387 17.7679 129.508 17.7679C129.508 16.5952 129.508 15.4225 129.508 14.2143C129.247 14.2143 128.987 14.2143 128.718 14.2143C128.718 15.387 128.718 16.5596 128.718 17.7679C128.458 17.7679 128.197 17.7679 127.929 17.7679C127.929 15.4225 127.929 13.0771 127.929 10.6607C128.189 10.6607 128.45 10.6607 128.718 10.6607C128.718 9.48803 128.718 8.31535 128.718 7.10714C128.197 7.10714 127.676 7.10714 127.139 7.10714C127.139 10.6252 127.139 14.1432 127.139 17.7679C126.878 17.7679 126.618 17.7679 126.349 17.7679C126.349 15.4225 126.349 13.0771 126.349 10.6607C126.089 10.6607 125.828 10.6607 125.56 10.6607C125.56 13.0061 125.56 15.3514 125.56 17.7679C124.517 17.7679 123.475 17.7679 122.401 17.7679C122.401 16.5952 122.401 15.4225 122.401 14.2143C123.183 14.2143 123.964 14.2143 124.77 14.2143C124.77 13.0416 124.77 11.8689 124.77 10.6607C124.509 10.6607 124.249 10.6607 123.98 10.6607C123.98 9.48803 123.98 8.31535 123.98 7.10714C123.198 7.10714 122.417 7.10714 121.611 7.10714C121.611 5.93446 121.611 4.76178 121.611 3.55357C121.35 3.55357 121.09 3.55357 120.821 3.55357C120.821 2.38089 120.821 1.20821 120.821 0ZM131.087 3.55357C131.087 5.89893 131.087 8.24428 131.087 10.6607C131.348 10.6607 131.608 10.6607 131.877 10.6607C131.877 8.31535 131.877 5.97 131.877 3.55357C131.616 3.55357 131.356 3.55357 131.087 3.55357ZM133.456 7.10714C133.456 9.4525 133.456 11.7979 133.456 14.2143C133.717 14.2143 133.978 14.2143 134.246 14.2143C134.246 11.8689 134.246 9.52357 134.246 7.10714C133.985 7.10714 133.725 7.10714 133.456 7.10714Z" fill="rgb(136, 206, 206)"/>
<path d="M109.766 0C110.808 0 111.851 0 112.925 0C112.925 1.17268 112.925 2.34536 112.925 3.55357C113.446 3.55357 113.967 3.55357 114.504 3.55357C114.504 2.38089 114.504 1.20821 114.504 0C114.765 0 115.025 0 115.294 0C115.294 3.51803 115.294 7.03607 115.294 10.6607C116.075 10.6607 116.857 10.6607 117.663 10.6607C117.663 9.48803 117.663 8.31535 117.663 7.10714C117.142 7.10714 116.62 7.10714 116.083 7.10714C116.083 5.93446 116.083 4.76178 116.083 3.55357C116.344 3.55357 116.605 3.55357 116.873 3.55357C116.873 2.38089 116.873 1.20821 116.873 0C117.655 0 118.437 0 119.242 0C119.242 5.86339 119.242 11.7268 119.242 17.7679C118.46 17.7679 117.678 17.7679 116.873 17.7679C116.873 16.5952 116.873 15.4225 116.873 14.2143C116.612 14.2143 116.352 14.2143 116.083 14.2143C116.083 15.387 116.083 16.5596 116.083 17.7679C115.823 17.7679 115.562 17.7679 115.294 17.7679C115.294 16.5952 115.294 15.4225 115.294 14.2143C115.033 14.2143 114.772 14.2143 114.504 14.2143C114.504 13.0416 114.504 11.8689 114.504 10.6607C114.243 10.6607 113.983 10.6607 113.714 10.6607C113.714 11.8334 113.714 13.0061 113.714 14.2143C113.454 14.2143 113.193 14.2143 112.925 14.2143C112.925 13.0416 112.925 11.8689 112.925 10.6607C112.664 10.6607 112.403 10.6607 112.135 10.6607C112.135 11.8334 112.135 13.0061 112.135 14.2143C111.874 14.2143 111.614 14.2143 111.345 14.2143C111.345 11.8689 111.345 9.52357 111.345 7.10714C110.824 7.10714 110.303 7.10714 109.766 7.10714C109.766 4.76178 109.766 2.41643 109.766 0ZM111.345 3.55357C111.345 4.72625 111.345 5.89893 111.345 7.10714C111.606 7.10714 111.866 7.10714 112.135 7.10714C112.135 5.93446 112.135 4.76178 112.135 3.55357C111.874 3.55357 111.614 3.55357 111.345 3.55357Z" fill="rgb(136, 206, 206)"/>
<path d="M106.607 0C107.389 0 108.171 0 108.976 0C108.976 2.34536 108.976 4.69071 108.976 7.10714C108.455 7.10714 107.934 7.10714 107.397 7.10714C107.397 5.93446 107.397 4.76178 107.397 3.55357C107.136 3.55357 106.876 3.55357 106.607 3.55357C106.607 2.38089 106.607 1.20821 106.607 0Z" fill="rgb(136, 206, 206)"/>
<path d="M104.238 0C104.759 0 105.28 0 105.817 0C105.817 5.86339 105.817 11.7268 105.817 17.7679C105.296 17.7679 104.775 17.7679 104.238 17.7679C104.238 14.2498 104.238 10.7318 104.238 7.10714C103.978 7.10714 103.717 7.10714 103.448 7.10714C103.448 5.93446 103.448 4.76178 103.448 3.55357C103.709 3.55357 103.97 3.55357 104.238 3.55357C104.238 2.38089 104.238 1.20821 104.238 0Z" fill="rgb(136, 206, 206)"/>
<path d="M102.659 0C102.919 0 103.18 0 103.448 0C103.448 1.17268 103.448 2.34536 103.448 3.55357C103.188 3.55357 102.927 3.55357 102.659 3.55357C102.659 2.38089 102.659 1.20821 102.659 0Z" fill="rgb(136, 206, 206)"/>
<path d="M98.7103 0C99.4921 0 100.274 0 101.079 0C101.079 1.17268 101.079 2.34536 101.079 3.55357C101.601 3.55357 102.122 3.55357 102.659 3.55357C102.659 4.72625 102.659 5.89893 102.659 7.10714C102.398 7.10714 102.138 7.10714 101.869 7.10714C101.869 8.27982 101.869 9.4525 101.869 10.6607C100.827 10.6607 99.7843 10.6607 98.7103 10.6607C98.7103 7.14268 98.7103 3.62464 98.7103 0ZM100.29 3.55357C100.29 4.72625 100.29 5.89893 100.29 7.10714C100.55 7.10714 100.811 7.10714 101.079 7.10714C101.079 5.93446 101.079 4.76178 101.079 3.55357C100.819 3.55357 100.558 3.55357 100.29 3.55357Z" fill="rgb(136, 206, 206)"/>
<path d="M95.5516 0C95.8122 0 96.0728 0 96.3413 0C96.3413 1.17268 96.3413 2.34536 96.3413 3.55357C96.6019 3.55357 96.8625 3.55357 97.131 3.55357C97.131 4.72625 97.131 5.89893 97.131 7.10714C97.3916 7.10714 97.6521 7.10714 97.9206 7.10714C97.9206 8.27982 97.9206 9.4525 97.9206 10.6607C98.1812 10.6607 98.4418 10.6607 98.7103 10.6607C98.7103 11.8334 98.7103 13.0061 98.7103 14.2143C98.1891 14.2143 97.6679 14.2143 97.131 14.2143C97.131 15.387 97.131 16.5596 97.131 17.7679C96.0886 17.7679 95.0462 17.7679 93.9722 17.7679C93.9722 16.5952 93.9722 15.4225 93.9722 14.2143C94.2328 14.2143 94.4934 14.2143 94.7619 14.2143C94.7619 10.6962 94.7619 7.17821 94.7619 3.55357C95.0225 3.55357 95.2831 3.55357 95.5516 3.55357C95.5516 2.38089 95.5516 1.20821 95.5516 0ZM96.3413 7.10714C96.3413 8.27982 96.3413 9.4525 96.3413 10.6607C96.6019 10.6607 96.8625 10.6607 97.131 10.6607C97.131 9.48803 97.131 8.31535 97.131 7.10714C96.8704 7.10714 96.6098 7.10714 96.3413 7.10714ZM95.5516 10.6607C95.5516 11.8334 95.5516 13.0061 95.5516 14.2143C95.8122 14.2143 96.0728 14.2143 96.3413 14.2143C96.3413 13.0416 96.3413 11.8689 96.3413 10.6607C96.0807 10.6607 95.8201 10.6607 95.5516 10.6607Z" fill="rgb(136, 206, 206)"/>
<path d="M88.4445 0C89.7475 0 91.0504 0 92.3929 0C92.3929 5.86339 92.3929 11.7268 92.3929 17.7679C92.1323 17.7679 91.8717 17.7679 91.6032 17.7679C91.6032 14.2498 91.6032 10.7318 91.6032 7.10714C91.3426 7.10714 91.082 7.10714 90.8135 7.10714C90.8135 8.27982 90.8135 9.4525 90.8135 10.6607C90.5529 10.6607 90.2923 10.6607 90.0238 10.6607C90.0238 11.8334 90.0238 13.0061 90.0238 14.2143C89.7632 14.2143 89.5027 14.2143 89.2342 14.2143C89.2342 15.387 89.2342 16.5596 89.2342 17.7679C88.9736 17.7679 88.713 17.7679 88.4445 17.7679C88.4445 16.5952 88.4445 15.4225 88.4445 14.2143C87.9233 14.2143 87.4021 14.2143 86.8651 14.2143C86.8651 13.0416 86.8651 11.8689 86.8651 10.6607C87.6469 10.6607 88.4287 10.6607 89.2342 10.6607C89.2342 9.48803 89.2342 8.31535 89.2342 7.10714C88.9736 7.10714 88.713 7.10714 88.4445 7.10714C88.4445 4.76178 88.4445 2.41643 88.4445 0ZM89.2342 3.55357C89.2342 4.72625 89.2342 5.89893 89.2342 7.10714C89.4948 7.10714 89.7554 7.10714 90.0238 7.10714C90.0238 5.93446 90.0238 4.76178 90.0238 3.55357C89.7632 3.55357 89.5027 3.55357 89.2342 3.55357Z" fill="rgb(136, 206, 206)"/>
<path d="M86.0754 0C86.5966 0 87.1178 0 87.6547 0C87.6547 1.17268 87.6547 2.34536 87.6547 3.55357C87.3941 3.55357 87.1336 3.55357 86.8651 3.55357C86.8651 5.89893 86.8651 8.24428 86.8651 10.6607C86.6045 10.6607 86.3439 10.6607 86.0754 10.6607C86.0754 7.14268 86.0754 3.62464 86.0754 0Z" fill="rgb(136, 206, 206)"/>
<path d="M83.7064 0C83.967 0 84.2276 0 84.496 0C84.496 1.17268 84.496 2.34536 84.496 3.55357C84.2354 3.55357 83.9749 3.55357 83.7064 3.55357C83.7064 2.38089 83.7064 1.20821 83.7064 0Z" fill="rgb(136, 206, 206)"/>
<path d="M80.5476 0C80.8082 0 81.0688 0 81.3373 0C81.3373 1.17268 81.3373 2.34536 81.3373 3.55357C81.0767 3.55357 80.8161 3.55357 80.5476 3.55357C80.5476 2.38089 80.5476 1.20821 80.5476 0Z" fill="rgb(136, 206, 206)"/>
<path d="M76.5992 0C77.381 0 78.1628 0 78.9683 0C78.9683 5.86339 78.9683 11.7268 78.9683 17.7679C77.6653 17.7679 76.3623 17.7679 75.0198 17.7679C75.0198 16.5952 75.0198 15.4225 75.0198 14.2143C74.7593 14.2143 74.4987 14.2143 74.2302 14.2143C74.2302 13.0416 74.2302 11.8689 74.2302 10.6607C74.4908 10.6607 74.7514 10.6607 75.0198 10.6607C75.0198 9.48803 75.0198 8.31535 75.0198 7.10714C75.2804 7.10714 75.541 7.10714 75.8095 7.10714C75.8095 8.27982 75.8095 9.4525 75.8095 10.6607C76.0701 10.6607 76.3307 10.6607 76.5992 10.6607C76.5992 9.48803 76.5992 8.31535 76.5992 7.10714C76.8598 7.10714 77.1204 7.10714 77.3889 7.10714C77.3889 5.93446 77.3889 4.76178 77.3889 3.55357C77.1283 3.55357 76.8677 3.55357 76.5992 3.55357C76.5992 2.38089 76.5992 1.20821 76.5992 0Z" fill="rgb(136, 206, 206)"/>
<path d="M75.0198 0C75.2804 0 75.541 0 75.8095 0C75.8095 1.17268 75.8095 2.34536 75.8095 3.55357C75.5489 3.55357 75.2883 3.55357 75.0198 3.55357C75.0198 2.38089 75.0198 1.20821 75.0198 0Z" fill="rgb(136, 206, 206)"/>
<path d="M71.8611 0C72.6429 0 73.4247 0 74.2301 0C74.2301 1.17268 74.2301 2.34536 74.2301 3.55357C74.4907 3.55357 74.7513 3.55357 75.0198 3.55357C75.0198 4.72625 75.0198 5.89893 75.0198 7.10714C74.7592 7.10714 74.4986 7.10714 74.2301 7.10714C74.2301 8.27982 74.2301 9.4525 74.2301 10.6607C73.9695 10.6607 73.7089 10.6607 73.4404 10.6607C73.4404 9.48803 73.4404 8.31536 73.4404 7.10714C72.9193 7.10714 72.3981 7.10714 71.8611 7.10714C71.8611 4.76178 71.8611 2.41643 71.8611 0Z" fill="rgb(136, 206, 206)"/>
<path d="M61.5952 0C62.8982 0 64.2012 0 65.5436 0C65.5436 1.17268 65.5436 2.34536 65.5436 3.55357C65.283 3.55357 65.0224 3.55357 64.7539 3.55357C64.7539 4.72625 64.7539 5.89893 64.7539 7.10714C65.2751 7.10714 65.7963 7.10714 66.3333 7.10714C66.3333 5.93446 66.3333 4.76178 66.3333 3.55357C67.1151 3.55357 67.8969 3.55357 68.7024 3.55357C68.7024 2.38089 68.7024 1.20821 68.7024 0C69.2235 0 69.7447 0 70.2817 0C70.2817 2.34536 70.2817 4.69071 70.2817 7.10714C70.5423 7.10714 70.8029 7.10714 71.0714 7.10714C71.0714 8.27982 71.0714 9.4525 71.0714 10.6607C70.8108 10.6607 70.5502 10.6607 70.2817 10.6607C70.2817 11.8334 70.2817 13.0061 70.2817 14.2143C70.5423 14.2143 70.8029 14.2143 71.0714 14.2143C71.0714 15.387 71.0714 16.5596 71.0714 17.7679C69.7684 17.7679 68.4655 17.7679 67.123 17.7679C67.123 16.5952 67.123 15.4225 67.123 14.2143C67.3836 14.2143 67.6442 14.2143 67.9127 14.2143C67.9127 13.0416 67.9127 11.8689 67.9127 10.6607C67.3915 10.6607 66.8703 10.6607 66.3333 10.6607C66.3333 11.8334 66.3333 13.0061 66.3333 14.2143C65.5515 14.2143 64.7697 14.2143 63.9643 14.2143C63.9643 15.387 63.9643 16.5596 63.9643 17.7679C63.4431 17.7679 62.9219 17.7679 62.3849 17.7679C62.3849 15.4225 62.3849 13.0771 62.3849 10.6607C62.1243 10.6607 61.8637 10.6607 61.5952 10.6607C61.5952 9.48803 61.5952 8.31535 61.5952 7.10714C61.8558 7.10714 62.1164 7.10714 62.3849 7.10714C62.3849 5.93446 62.3849 4.76178 62.3849 3.55357C62.1243 3.55357 61.8637 3.55357 61.5952 3.55357C61.5952 2.38089 61.5952 1.20821 61.5952 0Z" fill="rgb(136, 206, 206)"/>
<path d="M60.0159 0C60.2765 0 60.5371 0 60.8056 0C60.8056 1.17268 60.8056 2.34536 60.8056 3.55357C60.545 3.55357 60.2844 3.55357 60.0159 3.55357C60.0159 2.38089 60.0159 1.20821 60.0159 0Z" fill="rgb(136, 206, 206)"/>
<path d="M58.4365 0C58.6971 0 58.9577 0 59.2262 0C59.2262 1.17268 59.2262 2.34536 59.2262 3.55357C58.9656 3.55357 58.705 3.55357 58.4365 3.55357C58.4365 2.38089 58.4365 1.20821 58.4365 0Z" fill="rgb(136, 206, 206)"/>
<path d="M53.6984 0C55.0014 0 56.3044 0 57.6468 0C57.6468 1.17268 57.6468 2.34536 57.6468 3.55357C57.9074 3.55357 58.168 3.55357 58.4365 3.55357C58.4365 4.72625 58.4365 5.89893 58.4365 7.10714C58.1759 7.10714 57.9153 7.10714 57.6468 7.10714C57.6468 8.27982 57.6468 9.4525 57.6468 10.6607C57.3862 10.6607 57.1256 10.6607 56.8572 10.6607C56.8572 9.48803 56.8572 8.31535 56.8572 7.10714C56.5966 7.10714 56.336 7.10714 56.0675 7.10714C56.0675 8.27982 56.0675 9.4525 56.0675 10.6607C55.8069 10.6607 55.5463 10.6607 55.2778 10.6607C55.2778 11.8334 55.2778 13.0061 55.2778 14.2143C55.5384 14.2143 55.799 14.2143 56.0675 14.2143C56.0675 15.387 56.0675 16.5596 56.0675 17.7679C55.2857 17.7679 54.5039 17.7679 53.6984 17.7679C53.6984 11.9045 53.6984 6.04107 53.6984 0Z" fill="rgb(136, 206, 206)"/>
<path d="M52.119 0C52.3796 0 52.6402 0 52.9087 0C52.9087 1.17268 52.9087 2.34536 52.9087 3.55357C52.6481 3.55357 52.3875 3.55357 52.119 3.55357C52.119 2.38089 52.119 1.20821 52.119 0Z" fill="rgb(136, 206, 206)"/>
<path d="M46.5912 0C46.8518 0 47.1124 0 47.3809 0C47.3809 1.17268 47.3809 2.34536 47.3809 3.55357C47.1203 3.55357 46.8597 3.55357 46.5912 3.55357C46.5912 2.38089 46.5912 1.20821 46.5912 0Z" fill="rgb(136, 206, 206)"/>
<path d="M40.2738 0C40.5344 0 40.795 0 41.0635 0C41.0635 3.51803 41.0635 7.03607 41.0635 10.6607C41.3241 10.6607 41.5847 10.6607 41.8532 10.6607C41.8532 9.48803 41.8532 8.31535 41.8532 7.10714C42.1138 7.10714 42.3744 7.10714 42.6429 7.10714C42.6429 5.93446 42.6429 4.76178 42.6429 3.55357C42.9034 3.55357 43.164 3.55357 43.4325 3.55357C43.4325 2.38089 43.4325 1.20821 43.4325 0C43.6931 0 43.9537 0 44.2222 0C44.2222 1.17268 44.2222 2.34536 44.2222 3.55357C44.7434 3.55357 45.2646 3.55357 45.8016 3.55357C45.8016 4.72625 45.8016 5.89893 45.8016 7.10714C45.0198 7.10714 44.238 7.10714 43.4325 7.10714C43.4325 8.27982 43.4325 9.4525 43.4325 10.6607C43.6931 10.6607 43.9537 10.6607 44.2222 10.6607C44.2222 13.0061 44.2222 15.3514 44.2222 17.7679C42.9192 17.7679 41.6163 17.7679 40.2738 17.7679C40.2738 11.9045 40.2738 6.04107 40.2738 0ZM42.6429 10.6607C42.6429 11.8334 42.6429 13.0061 42.6429 14.2143C42.9034 14.2143 43.164 14.2143 43.4325 14.2143C43.4325 13.0416 43.4325 11.8689 43.4325 10.6607C43.1719 10.6607 42.9113 10.6607 42.6429 10.6607Z" fill="rgb(136, 206, 206)"/>
<path d="M35.5357 0C36.5781 0 37.6205 0 38.6945 0C38.6945 1.17268 38.6945 2.34536 38.6945 3.55357C38.4339 3.55357 38.1733 3.55357 37.9048 3.55357C37.9048 7.07161 37.9048 10.5896 37.9048 14.2143C37.6442 14.2143 37.3836 14.2143 37.1151 14.2143C37.1151 15.387 37.1151 16.5596 37.1151 17.7679C36.8545 17.7679 36.5939 17.7679 36.3254 17.7679C36.3254 16.5952 36.3254 15.4225 36.3254 14.2143C36.0648 14.2143 35.8042 14.2143 35.5357 14.2143C35.5357 13.0416 35.5357 11.8689 35.5357 10.6607C35.2751 10.6607 35.0145 10.6607 34.746 10.6607C34.746 9.48803 34.746 8.31535 34.746 7.10714C34.4854 7.10714 34.2249 7.10714 33.9564 7.10714C33.9564 5.93446 33.9564 4.76178 33.9564 3.55357C34.4776 3.55357 34.9987 3.55357 35.5357 3.55357C35.5357 2.38089 35.5357 1.20821 35.5357 0ZM36.3254 3.55357C36.3254 4.72625 36.3254 5.89893 36.3254 7.10714C36.586 7.10714 36.8466 7.10714 37.1151 7.10714C37.1151 5.93446 37.1151 4.76178 37.1151 3.55357C36.8545 3.55357 36.5939 3.55357 36.3254 3.55357ZM35.5357 7.10714C35.5357 8.27982 35.5357 9.4525 35.5357 10.6607C35.7963 10.6607 36.0569 10.6607 36.3254 10.6607C36.3254 9.48803 36.3254 8.31535 36.3254 7.10714C36.0648 7.10714 35.8042 7.10714 35.5357 7.10714Z" fill="rgb(136, 206, 206)"/>
<path d="M30.7976 0C31.5794 0 32.3612 0 33.1667 0C33.1667 1.17268 33.1667 2.34536 33.1667 3.55357C32.3849 3.55357 31.6031 3.55357 30.7976 3.55357C30.7976 2.38089 30.7976 1.20821 30.7976 0Z" fill="rgb(136, 206, 206)"/>
<path d="M29.2183 0C29.4789 0 29.7395 0 30.0079 0C30.0079 2.34536 30.0079 4.69071 30.0079 7.10714C29.7473 7.10714 29.4868 7.10714 29.2183 7.10714C29.2183 4.76178 29.2183 2.41643 29.2183 0Z" fill="rgb(136, 206, 206)"/>
<path d="M26.8492 0C27.3704 0 27.8916 0 28.4285 0C28.4285 3.51803 28.4285 7.03607 28.4285 10.6607C28.6891 10.6607 28.9497 10.6607 29.2182 10.6607C29.2182 11.8334 29.2182 13.0061 29.2182 14.2143C28.9576 14.2143 28.697 14.2143 28.4285 14.2143C28.4285 15.387 28.4285 16.5596 28.4285 17.7679C27.9074 17.7679 27.3862 17.7679 26.8492 17.7679C26.8492 11.9045 26.8492 6.04107 26.8492 0Z" fill="rgb(136, 206, 206)"/>
<path d="M21.3214 0C22.1032 0 22.885 0 23.6905 0C23.6905 1.17268 23.6905 2.34536 23.6905 3.55357C23.9511 3.55357 24.2116 3.55357 24.4801 3.55357C24.4801 4.72625 24.4801 5.89893 24.4801 7.10714C24.2195 7.10714 23.959 7.10714 23.6905 7.10714C23.6905 8.27982 23.6905 9.4525 23.6905 10.6607C23.4299 10.6607 23.1693 10.6607 22.9008 10.6607C22.9008 9.48803 22.9008 8.31536 22.9008 7.10714C22.6402 7.10714 22.3796 7.10714 22.1111 7.10714C22.1111 5.93446 22.1111 4.76178 22.1111 3.55357C21.8505 3.55357 21.5899 3.55357 21.3214 3.55357C21.3214 2.38089 21.3214 1.20821 21.3214 0Z" fill="rgb(136, 206, 206)"/>
<path d="M18.1627 0C18.4233 0 18.6839 0 18.9524 0C18.9524 1.17268 18.9524 2.34536 18.9524 3.55357C18.6918 3.55357 18.4312 3.55357 18.1627 3.55357C18.1627 2.38089 18.1627 1.20821 18.1627 0Z" fill="rgb(136, 206, 206)"/>
<path d="M13.4246 0C14.2064 0 14.9882 0 15.7937 0C15.7937 1.17268 15.7937 2.34536 15.7937 3.55357C16.0543 3.55357 16.3149 3.55357 16.5834 3.55357C16.5834 2.38089 16.5834 1.20821 16.5834 0C16.8439 0 17.1045 0 17.373 0C17.373 1.17268 17.373 2.34536 17.373 3.55357C17.6336 3.55357 17.8942 3.55357 18.1627 3.55357C18.1627 4.72625 18.1627 5.89893 18.1627 7.10714C18.4233 7.10714 18.6839 7.10714 18.9524 7.10714C18.9524 5.93446 18.9524 4.76178 18.9524 3.55357C19.213 3.55357 19.4736 3.55357 19.7421 3.55357C19.7421 4.72625 19.7421 5.89893 19.7421 7.10714C20.0027 7.10714 20.2633 7.10714 20.5318 7.10714C20.5318 5.93446 20.5318 4.76178 20.5318 3.55357C20.7924 3.55357 21.053 3.55357 21.3214 3.55357C21.3214 5.89893 21.3214 8.24428 21.3214 10.6607C21.8426 10.6607 22.3638 10.6607 22.9008 10.6607C22.9008 13.0061 22.9008 15.3514 22.9008 17.7679C21.8584 17.7679 20.8161 17.7679 19.7421 17.7679C19.7421 16.5952 19.7421 15.4225 19.7421 14.2143C19.2209 14.2143 18.6997 14.2143 18.1627 14.2143C18.1627 15.387 18.1627 16.5596 18.1627 17.7679C17.9021 17.7679 17.6415 17.7679 17.373 17.7679C17.373 14.2498 17.373 10.7318 17.373 7.10714C16.5912 7.10714 15.8095 7.10714 15.004 7.10714C15.004 8.27982 15.004 9.4525 15.004 10.6607C15.5252 10.6607 16.0464 10.6607 16.5834 10.6607C16.5834 11.8334 16.5834 13.0061 16.5834 14.2143C16.3228 14.2143 16.0622 14.2143 15.7937 14.2143C15.7937 15.387 15.7937 16.5596 15.7937 17.7679C15.0119 17.7679 14.2301 17.7679 13.4246 17.7679C13.4246 11.9045 13.4246 6.04107 13.4246 0ZM20.5318 10.6607C20.5318 11.8334 20.5318 13.0061 20.5318 14.2143C20.7924 14.2143 21.053 14.2143 21.3214 14.2143C21.3214 13.0416 21.3214 11.8689 21.3214 10.6607C21.0609 10.6607 20.8003 10.6607 20.5318 10.6607Z" fill="rgb(136, 206, 206)"/>
<path d="M0 0C1.04238 0 2.08476 0 3.15873 0C3.15873 1.17268 3.15873 2.34536 3.15873 3.55357C3.41933 3.55357 3.67992 3.55357 3.94841 3.55357C3.94841 2.38089 3.94841 1.20821 3.94841 0C4.20901 0 4.4696 0 4.7381 0C4.7381 2.34536 4.7381 4.69071 4.7381 7.10714C4.4775 7.10714 4.2169 7.10714 3.94841 7.10714C3.94841 8.27982 3.94841 9.4525 3.94841 10.6607C4.4696 10.6607 4.99079 10.6607 5.52778 10.6607C5.52778 7.14268 5.52778 3.62464 5.52778 0C5.78837 0 6.04897 0 6.31746 0C6.31746 2.34536 6.31746 4.69071 6.31746 7.10714C6.57806 7.10714 6.83865 7.10714 7.10714 7.10714C7.10714 4.76178 7.10714 2.41643 7.10714 0C8.14952 0 9.1919 0 10.2659 0C10.2659 1.17268 10.2659 2.34536 10.2659 3.55357C9.48409 3.55357 8.7023 3.55357 7.89683 3.55357C7.89683 4.72625 7.89683 5.89893 7.89683 7.10714C8.15742 7.10714 8.41802 7.10714 8.68651 7.10714C8.68651 8.27982 8.68651 9.4525 8.68651 10.6607C9.46829 10.6607 10.2501 10.6607 11.0556 10.6607C11.0556 11.8334 11.0556 13.0061 11.0556 14.2143C11.3162 14.2143 11.5767 14.2143 11.8452 14.2143C11.8452 15.387 11.8452 16.5596 11.8452 17.7679C11.324 17.7679 10.8029 17.7679 10.2659 17.7679C10.2659 16.5952 10.2659 15.4225 10.2659 14.2143C9.48409 14.2143 8.7023 14.2143 7.89683 14.2143C7.89683 13.0416 7.89683 11.8689 7.89683 10.6607C7.37563 10.6607 6.85444 10.6607 6.31746 10.6607C6.31746 11.8334 6.31746 13.0061 6.31746 14.2143C6.57806 14.2143 6.83865 14.2143 7.10714 14.2143C7.10714 15.387 7.10714 16.5596 7.10714 17.7679C6.32536 17.7679 5.54357 17.7679 4.7381 17.7679C4.7381 16.5952 4.7381 15.4225 4.7381 14.2143C4.4775 14.2143 4.2169 14.2143 3.94841 14.2143C3.94841 15.387 3.94841 16.5596 3.94841 17.7679C3.68782 17.7679 3.42722 17.7679 3.15873 17.7679C3.15873 14.2498 3.15873 10.7318 3.15873 7.10714C2.89813 7.10714 2.63754 7.10714 2.36905 7.10714C2.36905 10.6252 2.36905 14.1432 2.36905 17.7679C1.58726 17.7679 0.805476 17.7679 0 17.7679C0 11.9045 0 6.04107 0 0ZM0.789683 7.10714C0.789683 9.4525 0.789683 11.7979 0.789683 14.2143C1.05028 14.2143 1.31087 14.2143 1.57937 14.2143C1.57937 11.8689 1.57937 9.52357 1.57937 7.10714C1.31877 7.10714 1.05817 7.10714 0.789683 7.10714Z" fill="rgb(136, 206, 206)"/>
</svg>
