<svg width="118" height="108" viewBox="0 0 118 108" fill="none" xmlns="http://www.w3.org/2000/svg">
<path d="M116.89 102L100.05 71.3998L97.42 72.8498L76 33.9998L78.64 32.5498L61.77 1.82975C61.4642 1.27523 61.0153 0.812875 60.4701 0.490875C59.9249 0.168876 59.3032 -0.000976562 58.67 -0.000976562C58.0368 -0.000976563 57.4151 0.168876 56.8699 0.490875C56.3246 0.812875 55.8757 1.27523 55.57 1.82975L38.66 32.5498L41.3 33.9998L19.89 72.8998L17.25 71.4598L0.43999 102C0.138337 102.532 -0.016423 103.135 -0.00843364 103.746C-0.000444244 104.358 0.170008 104.956 0.485457 105.48C0.800906 106.004 1.25001 106.435 1.78675 106.729C2.32349 107.022 2.92857 107.167 3.53999 107.15H37.38V104.15H80.38V107.15H113.79C114.401 107.167 115.006 107.022 115.543 106.729C116.08 106.435 116.529 106.004 116.845 105.48C117.16 104.956 117.33 104.358 117.338 103.746C117.346 103.135 117.192 102.532 116.89 102ZM12.51 101.24C12.0394 101.245 11.5756 101.126 11.1662 100.894C10.7567 100.662 10.4161 100.326 10.1792 99.9188C9.94231 99.5121 9.81756 99.0499 9.8177 98.5792C9.81784 98.1085 9.94285 97.6463 10.18 97.2398L44 35.7698L56.29 13.3398C56.5211 12.923 56.8595 12.5758 57.2701 12.3339C57.6807 12.0921 58.1485 11.9646 58.625 11.9646C59.1015 11.9646 59.5693 12.0921 59.9799 12.3339C60.3905 12.5758 60.7289 12.923 60.96 13.3398L107.11 97.1998C107.335 97.6042 107.451 98.0607 107.445 98.5237C107.439 98.9868 107.312 99.4401 107.076 99.8387C106.84 100.237 106.504 100.567 106.102 100.795C105.699 101.024 105.243 101.142 104.78 101.14L12.51 101.24ZM110.38 101.24H109.38L110.38 102.88V101.24Z" fill="#C2EEFF"/>
<path d="M55.21 33.3994V54.5994C55.21 64.9794 55.94 74.5994 55.94 74.5994H61.35C61.35 74.5994 62.08 65.0094 62.08 54.5994V33.3994H55.21Z" fill="#C2EEFF"/>
<path d="M58.65 92.2698C61.8643 92.2698 64.47 89.5343 64.47 86.1598C64.47 82.7853 61.8643 80.0498 58.65 80.0498C55.4357 80.0498 52.83 82.7853 52.83 86.1598C52.83 89.5343 55.4357 92.2698 58.65 92.2698Z" fill="#C2EEFF"/>
</svg>
