<svg width="64" height="52" viewBox="0 0 64 52" fill="none" xmlns="http://www.w3.org/2000/svg">
<path d="M55 23.9C55 15.7 48.3 8.99999 40.1 8.99999C34.3 8.99999 29.1 12.3 26.6 17.6H26.5C19.5 17.6 13.7 22.8 12.9 29.6C12.3 29.5 11.7 29.5 11.1 29.5C5 29.4 0 34.4 0 40.5C0 46.6 5 51.6 11.1 51.6H39.3C45.4 51.6 50.4 46.6 50.4 40.5C50.4 38.8 50 37.1 49.3 35.6C52.9 32.8 55 28.5 55 23.9ZM39.3 49.7H11.1C6.1 49.7 1.9 45.6 1.9 40.5C1.9 35.5 6 31.3 11.1 31.3C11.9 31.3 12.8 31.4 13.5 31.6C13.8 31.7 14.1 31.6 14.3 31.5C14.5 31.3 14.7 31.1 14.7 30.8C15 24.5 20.2 19.5 26.5 19.5C32.7 19.5 37.8 24.3 38.3 30.4C38.3 30.9 38.8 31.3 39.3 31.3C44.4 31.3 48.5 35.4 48.5 40.5C48.5 45.5 44.4 49.7 39.3 49.7ZM48.3 33.9C46.4 31.4 43.5 29.7 40.2 29.4C39.4 23.4 34.7 18.7 28.8 17.7C31 13.5 35.4 10.9 40.2 10.9C47.3 10.9 53.2 16.7 53.2 23.9C53.1 27.8 51.3 31.5 48.3 33.9ZM40.1 8.19999C40.6 8.19999 41.1 7.79999 41.1 7.19999V0.999999C41.1 0.5 40.7 0 40.1 0C39.5 0 39.1 0.4 39.1 0.999999V7.29999C39.1 7.79999 39.6 8.19999 40.1 8.19999ZM30.9 9.99999C31.1 10.3 31.4 10.5 31.7 10.5C31.9 10.5 32 10.5 32.2 10.4C32.7 10.1 32.8 9.49999 32.6 9.09999L29.5 3.7C29.2 3.2 28.6 3.1 28.2 3.3C27.7 3.6 27.6 4.2 27.8 4.6L30.9 9.99999Z" fill="#C2EEFF"/>
<path d="M19.7993 13.3015L25.1993 16.4015C25.3993 16.5015 25.4993 16.5015 25.6993 16.5015C25.9993 16.5015 26.3993 16.3015 26.4993 16.0015C26.7993 15.5015 26.5993 14.9015 26.0993 14.7015L20.6993 11.6015C20.1993 11.3015 19.5993 11.5015 19.3993 12.0015C19.1993 12.4015 19.2993 13.0015 19.7993 13.3015ZM60.3993 34.5015L54.9993 31.4015C54.4993 31.1015 53.8993 31.3015 53.6993 31.8015C53.3993 32.3015 53.5993 32.9015 54.0993 33.1015L59.4993 36.2015C59.6993 36.3015 59.7993 36.3015 59.9993 36.3015C60.2993 36.3015 60.6993 36.1015 60.7993 35.8015C61.0993 35.4015 60.8993 34.8015 60.3993 34.5015ZM62.9993 22.9015H56.6993C56.1993 22.9015 55.6993 23.3015 55.6993 23.9015C55.6993 24.5015 56.0993 24.9015 56.6993 24.9015H62.9993C63.4993 24.9015 63.9993 24.5015 63.9993 23.9015C63.9993 23.3015 63.5993 22.9015 62.9993 22.9015ZM54.4993 16.5015C54.6993 16.5015 54.7993 16.5015 54.9993 16.4015L60.3993 13.3015C60.8993 13.0015 60.9993 12.4015 60.7993 12.0015C60.4993 11.5015 59.8993 11.4015 59.4993 11.6015L53.9993 14.7015C53.4993 15.0015 53.3993 15.6015 53.5993 16.0015C53.8993 16.4015 54.1993 16.5015 54.4993 16.5015ZM47.8993 10.3015C48.0993 10.4015 48.1993 10.4015 48.3993 10.4015C48.6993 10.4015 49.0993 10.2015 49.1993 9.9015L52.2993 4.5015C52.5993 4.0015 52.3993 3.4015 51.8993 3.2015C51.3993 2.9015 50.7993 3.1015 50.5993 3.6015L47.4993 9.0015C47.2993 9.5015 47.4993 10.1015 47.8993 10.3015Z" fill="#C2EEFF"/>
</svg>
