<svg width="22" height="22" viewBox="0 0 22 22" fill="none" xmlns="http://www.w3.org/2000/svg">
<path d="M11.0001 9.17007C12.5193 9.17007 13.7501 7.93919 13.7501 6.41999C13.7501 4.90079 12.5193 3.66992 11.0001 3.66992C9.48087 3.66992 8.25 4.90079 8.25 6.41999C8.25 7.93919 9.48087 9.17007 11.0001 9.17007ZM11.0001 5.50332C11.5067 5.50332 11.9167 5.91334 11.9167 6.41999C11.9167 6.92665 11.5067 7.33667 11.0001 7.33667C10.4934 7.33667 10.0834 6.92665 10.0834 6.41999C10.0834 5.91334 10.4934 5.50332 11.0001 5.50332Z" fill="#61C5CF"/>
<path d="M9.80556 17.083L10.1786 17.8291C10.5165 18.5048 11.4808 18.5047 11.8185 17.8289L12.6087 16.2476C13.4021 14.6619 14.153 13.4107 15.8642 10.7209L15.9087 10.6509C16.1602 10.2556 16.2817 10.0643 16.4261 9.8361C17.0688 8.82102 17.4153 7.64498 17.4153 6.41884C17.4153 2.59314 14.0916 -0.39279 10.2485 0.0445577C7.38898 0.370742 5.0411 2.65863 4.64535 5.5071C4.40854 7.21228 4.84318 8.87568 5.82814 10.213C7.15307 12.009 8.17331 13.8197 9.80556 17.083ZM6.46134 5.75934C6.74185 3.74022 8.42764 2.09753 10.4561 1.86614C13.2086 1.55289 15.582 3.68505 15.582 6.41884C15.582 7.29499 15.3355 8.1314 14.8771 8.85549C14.7336 9.0822 14.6126 9.27264 14.3619 9.66676L14.3174 9.73676C12.5922 12.4485 11.8172 13.7382 10.9966 15.3723C9.57021 12.5637 8.57868 10.8532 7.30403 9.12525C6.60031 8.16973 6.29097 6.98595 6.46134 5.75934Z" fill="#61C5CF"/>
<path d="M16.7101 13.4527C16.2175 13.3358 15.7235 13.6405 15.6067 14.1331C15.4898 14.6257 15.7945 15.1198 16.2871 15.2366C18.7455 15.8196 20.1672 16.7523 20.1672 17.4183C20.1672 18.685 16.0872 20.1684 11.0003 20.1684C5.91274 20.1684 1.8334 18.6851 1.8334 17.4183C1.8334 16.7519 3.25368 15.8194 5.71082 15.2366C6.20343 15.1197 6.50804 14.6257 6.39121 14.1331C6.27437 13.6405 5.78031 13.3358 5.2877 13.4527C2.07136 14.2157 0 15.5756 0 17.4183C0 20.203 4.94729 22.0018 11.0003 22.0018C17.0527 22.0018 22.0006 20.2029 22.0006 17.4183C22.0006 15.5756 19.9279 14.2157 16.7101 13.4527Z" fill="#61C5CF"/>
</svg>
