<svg xmlns="http://www.w3.org/2000/svg" xmlns:xlink="http://www.w3.org/1999/xlink" version="1.2" baseProfile="tiny" x="0px" y="0px"  viewBox="0 28 90 90"  xml:space="preserve"><g transform="scale(0.7)"><path fill="rgb(253, 254, 248)" d="M25.1875,108.35c3.43125,3.43125,9,3.43125,12.43125,0c3.43125-3.43125,9.5625-21.9375,9.5625-21.9375s-18.50625,6.13125-21.9375,9.5625C21.756,99.35,21.756,104.91875,25.1875,108.35z"/><g transform="translate(25, 0)">
  <path fill="rgb(253, 254, 248)" d="M56.1,107.225c3.43125,3.43125,9,3.43125,12.43125,0c3.43125-3.43125,9.5625-21.9375,9.5625-21.9375s-18.50625,6.13125-21.9375,9.5625C52.66875,98.225,52.66875,103.79375,56.1,107.225z"/>
</g><g transform="translate(3, 75)">
  <path fill="rgb(253, 254, 248)" d="M65.0125,37.2375c0,0-18.50625,6.13125-21.9375,9.5625c-3.43125,3.43125-3.43125,9,0,12.43125c3.43125,3.43125,9,3.43125,12.43125,0C58.9375,55.7875,65.0125,37.2375,65.0125,37.2375z"/>
</g></g></svg>