<svg width="20" height="22" viewBox="0 0 20 22" fill="none" xmlns="http://www.w3.org/2000/svg">
<path d="M10 0.00195312C9.0371 0.00195312 8.11475 0.220151 7.50706 0.911817C6.89937 1.60348 6.87986 2.34093 6.84469 2.78963C6.80953 3.23832 6.78026 3.51762 6.71243 3.69063C6.64461 3.86363 6.58866 3.99581 6.16432 4.24122C5.73998 4.48664 5.59786 4.46894 5.41437 4.44128C5.23088 4.41362 4.97489 4.29947 4.56939 4.10563C4.16389 3.91179 3.5164 3.55991 2.61457 3.74126C1.71275 3.92261 1.0629 4.61362 0.581452 5.44894C0.100002 6.28426 -0.172429 7.19354 0.121702 8.06655C0.415828 8.93956 1.04369 9.32535 1.41402 9.5802C1.78435 9.83505 2.01107 9.99999 2.12673 10.1453C2.2424 10.2907 2.32877 10.4052 2.32877 10.8961C2.32877 11.3869 2.2424 11.5014 2.12673 11.6468C2.01107 11.7921 1.78435 11.9571 1.41402 12.2119C1.04369 12.4668 0.415828 12.8526 0.121702 13.7256C-0.172429 14.5986 0.100002 15.5079 0.581452 16.3432C1.0629 17.1785 1.71275 17.8695 2.61457 18.0509C3.5164 18.2322 4.16389 17.8803 4.56939 17.6865C4.97489 17.4927 5.23088 17.3785 5.41437 17.3509C5.59786 17.3232 5.73998 17.3055 6.16432 17.5509C6.58866 17.7963 6.6446 17.9285 6.71243 18.1015C6.78026 18.2745 6.80953 18.5538 6.84469 19.0025C6.87986 19.4512 6.89937 20.1886 7.50706 20.8803C8.11475 21.572 9.0371 21.7902 10 21.7902C10.9629 21.7902 11.8852 21.572 12.4929 20.8803C13.1006 20.1886 13.1201 19.4512 13.1553 19.0025C13.1905 18.5538 13.2197 18.2745 13.2876 18.1015C13.3554 17.9285 13.4113 17.7963 13.8357 17.5509C14.26 17.3055 14.4021 17.3232 14.5856 17.3509C14.7691 17.3785 15.0251 17.4927 15.4306 17.6865C15.8361 17.8803 16.4836 18.2322 17.3854 18.0509C18.2873 17.8695 18.9371 17.1785 19.4185 16.3432C19.9 15.5079 20.1724 14.5986 19.8783 13.7256C19.5842 12.8526 18.9563 12.4668 18.586 12.2119C18.2156 11.9571 17.9889 11.7921 17.8733 11.6468C17.7576 11.5014 17.6712 11.3869 17.6712 10.8961C17.6712 10.4052 17.7576 10.2907 17.8733 10.1453C17.9889 9.99999 18.2156 9.83505 18.586 9.5802C18.9563 9.32535 19.5842 8.93956 19.8783 8.06655C20.1724 7.19354 19.9 6.28426 19.4185 5.44894C18.9371 4.61362 18.2873 3.92261 17.3854 3.74126C16.4836 3.55991 15.8361 3.91179 15.4306 4.10563C15.0251 4.29947 14.7691 4.41362 14.5856 4.44128C14.4021 4.46894 14.26 4.48664 13.8357 4.24122C13.4113 3.99581 13.3554 3.86363 13.2876 3.69063C13.2197 3.51762 13.1905 3.23832 13.1553 2.78963C13.1201 2.34093 13.1006 1.60348 12.4929 0.911817C11.8852 0.220151 10.9629 0.00195312 10 0.00195312ZM10.0009 6.17513C12.6223 6.17513 14.7209 8.27331 14.7209 10.8961C14.7209 13.5188 12.6223 15.617 10.0009 15.617C7.37938 15.617 5.28077 13.5188 5.28077 10.8961C5.28077 8.27331 7.37938 6.17513 10.0009 6.17513Z" fill="#61C5CF"/>
<path d="M9.99853 7.99219C8.40756 7.99219 7.09375 9.30678 7.09375 10.8966C7.09375 12.4864 8.40756 13.8009 9.99853 13.8009C11.5895 13.8009 12.9033 12.4864 12.9033 10.8966C12.9033 9.30678 11.5895 7.99219 9.99853 7.99219Z" fill="#61C5CF"/>
</svg>
