<svg width="100" height="94" viewBox="0 0 100 94" fill="none" xmlns="http://www.w3.org/2000/svg">
<path d="M67 43H65.9609C65.4492 36.2969 59.832 31 52.9999 31C51.1249 31 49.2616 31.4102 47.5663 32.1875C44.1366 28.2461 39.2382 26 34.0003 26C24.4105 26 16.5473 33.5391 16.0273 43H15C6.7266 43 0 49.7305 0 58C0 66.2695 6.7266 73 15 73H67C75.2734 73 82 66.2695 82 58C82 49.7305 75.2734 43 67 43Z" fill="#FDFEF8"/>
<path d="M100.01 35.4961C100.01 34.7149 99.3772 34.0859 98.5959 34.0859H87.3809C86.5996 34.0859 85.9668 34.7187 85.9668 35.4961C85.9668 36.2774 86.5996 36.9063 87.3809 36.9063H98.5959C99.3772 36.9063 100.01 36.2735 100.01 35.4961Z" fill="#FDFEF8"/>
<path d="M87.6201 10.3984L79.6904 18.3281C79.1396 18.8788 79.1396 19.7734 79.6904 20.3242C79.9639 20.5976 80.3271 20.7382 80.6904 20.7382C81.0537 20.7382 81.4092 20.5976 81.6865 20.3242L89.6162 12.3945C90.8896 11.0273 88.9951 9.12495 87.6201 10.3984Z" fill="#FDFEF8"/>
<path d="M63.1075 1.4141V12.6291C63.1778 14.4963 65.8575 14.5041 65.9278 12.6291V1.4141C65.9278 0.632851 65.295 0 64.5176 0C63.7364 0 63.1075 0.632811 63.1075 1.4141Z" fill="#FDFEF8"/>
<path d="M48.3456 20.7372C49.58 20.7489 50.2362 19.206 49.3456 18.331L41.4159 10.4013C40.0487 9.12788 38.1464 11.0224 39.4198 12.3974L47.3495 20.3271C47.623 20.6005 47.9863 20.7411 48.3456 20.7411L48.3456 20.7372Z" fill="#FDFEF8"/>
<path d="M64.5186 17.4375C74.4914 17.4376 82.5769 25.5236 82.5771 35.4961C82.5771 39.152 81.4889 42.5533 79.6211 45.3965C76.9055 42.6817 73.1568 41 69.0215 41H67.9824C67.4707 34.2969 61.8535 29.0001 55.0215 29C53.1465 29 51.2832 29.4102 49.5879 30.1875C49.056 29.5762 48.489 29.0052 47.8906 28.4775C50.2642 22.5314 55.8063 17.7842 64.5186 17.4375Z" fill="#FDFEF8"/>
<path d="M14 94C12.398 94 11 92.5627 11 90.924V81.076C11 79.4334 12.4018 78 14 78C15.602 78 17 79.4373 17 81.076V90.924C17 92.7719 15.8024 94 14 94Z" fill="#FDFEF8"/>
<path d="M32 94C30.398 94 29 92.5627 29 90.924V81.076C29 79.4334 30.4018 78 32 78C33.602 78 35 79.4373 35 81.076V90.924C35.0038 92.7719 33.602 94 32 94Z" fill="#FDFEF8"/>
<path d="M50 94C48.398 94 47 92.5627 47 90.924V81.076C47 79.4334 48.4018 78 50 78C51.602 78 53 79.4373 53 81.076V90.924C53 92.7719 51.602 94 50 94Z" fill="#FDFEF8"/>
<path d="M68 94C66.398 94 65 92.5627 65 90.924V81.076C65 79.4334 66.4018 78 68 78C69.602 78 71 79.4373 71 81.076V90.924C71.0038 92.7719 69.602 94 68 94Z" fill="#FDFEF8"/>
</svg>
