<svg width="100" height="94" viewBox="0 0 100 94" fill="none" xmlns="http://www.w3.org/2000/svg">
<path d="M67 43H65.9609C65.4492 36.2969 59.832 31 52.9999 31C51.1249 31 49.2616 31.4102 47.5663 32.1875C44.1366 28.2461 39.2382 26 34.0003 26C24.4105 26 16.5473 33.5391 16.0273 43H15C6.7266 43 0 49.7305 0 58C0 66.2695 6.7266 73 15 73H67C75.2734 73 82 66.2695 82 58C82 49.7305 75.2734 43 67 43Z" fill="#FDFEF8"/>
<path d="M100.01 35.4961C100.01 34.7149 99.3772 34.0859 98.5959 34.0859H87.3809C86.5996 34.0859 85.9668 34.7187 85.9668 35.4961C85.9668 36.2774 86.5996 36.9063 87.3809 36.9063H98.5959C99.3772 36.9063 100.01 36.2735 100.01 35.4961Z" fill="#FDFEF8"/>
<path d="M87.6201 10.3984L79.6904 18.3281C79.1396 18.8788 79.1396 19.7734 79.6904 20.3242C79.9639 20.5976 80.3271 20.7382 80.6904 20.7382C81.0537 20.7382 81.4092 20.5976 81.6865 20.3242L89.6162 12.3945C90.8896 11.0273 88.9951 9.12495 87.6201 10.3984Z" fill="#FDFEF8"/>
<path d="M63.1075 1.4141V12.6291C63.1778 14.4963 65.8575 14.5041 65.9278 12.6291V1.4141C65.9278 0.632851 65.295 0 64.5176 0C63.7364 0 63.1075 0.632811 63.1075 1.4141Z" fill="#FDFEF8"/>
<path d="M48.3456 20.7372C49.58 20.7489 50.2362 19.206 49.3456 18.331L41.4159 10.4013C40.0487 9.12788 38.1464 11.0224 39.4198 12.3974L47.3495 20.3271C47.623 20.6005 47.9863 20.7411 48.3456 20.7411L48.3456 20.7372Z" fill="#FDFEF8"/>
<path d="M64.5186 17.4375C74.4914 17.4376 82.5769 25.5236 82.5771 35.4961C82.5771 39.152 81.4889 42.5533 79.6211 45.3965C76.9055 42.6817 73.1568 41 69.0215 41H67.9824C67.4707 34.2969 61.8535 29.0001 55.0215 29C53.1465 29 51.2832 29.4102 49.5879 30.1875C49.056 29.5762 48.489 29.0052 47.8906 28.4775C50.2642 22.5314 55.8063 17.7842 64.5186 17.4375Z" fill="#FDFEF8"/>
<path d="M16.3915 92.1782C16.2928 92.2773 16.2146 92.395 16.1612 92.5244C16.1079 92.6539 16.0804 92.7927 16.0804 92.9328C16.0804 93.073 16.1079 93.2117 16.1612 93.3412C16.2146 93.4707 16.2928 93.5883 16.3915 93.6874C16.4901 93.7865 16.6072 93.8651 16.736 93.9188C16.8649 93.9724 17.003 94 17.1424 94C17.2819 94 17.42 93.9724 17.5489 93.9188C17.6777 93.8651 17.7948 93.7865 17.8934 93.6874L19 92.5755L20.1066 93.6874C20.2052 93.7865 20.3223 93.8651 20.4511 93.9188C20.58 93.9724 20.7181 94 20.8576 94C20.997 94 21.1351 93.9724 21.264 93.9188C21.3928 93.8651 21.5099 93.7865 21.6085 93.6874C21.7072 93.5883 21.7854 93.4707 21.8388 93.3412C21.8921 93.2117 21.9196 93.073 21.9196 92.9328C21.9196 92.7927 21.8921 92.6539 21.8388 92.5244C21.7854 92.395 21.7072 92.2773 21.6085 92.1782L20.0615 90.6237V87.8479L22.4497 89.2371L23.0176 91.3329C23.1048 91.5865 23.2839 91.7977 23.5192 91.9245C23.7544 92.0512 24.0286 92.0843 24.287 92.017C24.5455 91.9497 24.7692 91.7871 24.9136 91.5615C25.058 91.3358 25.1125 91.0638 25.0662 90.7996L24.6682 89.3038L26.1649 88.8985C26.3044 88.8679 26.4363 88.8093 26.5527 88.7263C26.6692 88.6433 26.7678 88.5375 26.8426 88.4153C26.9174 88.2931 26.9669 88.157 26.9882 88.0151C27.0094 87.8732 27.002 87.7285 26.9662 87.5895C26.9305 87.4506 26.8673 87.3204 26.7803 87.2066C26.6933 87.0928 26.5844 86.9979 26.46 86.9274C26.3356 86.8569 26.1984 86.8123 26.0565 86.7964C25.9146 86.7805 25.7709 86.7935 25.6341 86.8346L23.5112 87.3892L21.1229 86L23.5112 84.6108L25.6341 85.1654C25.7709 85.2065 25.9146 85.2195 26.0565 85.2036C26.1984 85.1877 26.3356 85.1431 26.46 85.0726C26.5844 85.0021 26.6933 84.9072 26.7803 84.7934C26.8673 84.6796 26.9305 84.5494 26.9662 84.4104C27.002 84.2715 27.0094 84.1268 26.9882 83.9849C26.9669 83.843 26.9174 83.7069 26.8426 83.5847C26.7678 83.4625 26.6692 83.3567 26.5527 83.2737C26.4363 83.1907 26.3044 83.1321 26.1649 83.1015L24.6655 82.7069L25.0662 81.2004C25.1125 80.9362 25.058 80.6642 24.9136 80.4385C24.7692 80.2129 24.5455 80.0503 24.287 79.983C24.0286 79.9157 23.7544 79.9488 23.5192 80.0755C23.2839 80.2023 23.1048 80.4135 23.0176 80.6671L22.4497 82.7629L20.0615 84.1521V81.3763L21.6085 79.8218C21.8077 79.6217 21.9196 79.3502 21.9196 79.0672C21.9196 78.7841 21.8077 78.5127 21.6085 78.3126C21.4094 78.1124 21.1392 78 20.8576 78C20.5759 78 20.3057 78.1124 20.1066 78.3126L19 79.4245L17.8934 78.3126C17.7948 78.2135 17.6777 78.1349 17.5489 78.0812C17.42 78.0276 17.2819 78 17.1424 78C17.003 78 16.8649 78.0276 16.736 78.0812C16.6072 78.1349 16.4901 78.2135 16.3915 78.3126C16.2928 78.4117 16.2146 78.5293 16.1612 78.6588C16.1079 78.7883 16.0804 78.927 16.0804 79.0672C16.0804 79.2073 16.1079 79.3461 16.1612 79.4756C16.2146 79.605 16.2928 79.7227 16.3915 79.8218L17.9385 81.3763V84.1521L15.5503 82.7629L14.9824 80.6671C14.8952 80.4135 14.7161 80.2023 14.4808 80.0755C14.2455 79.9488 13.9714 79.9157 13.713 79.983C13.4545 80.0503 13.2308 80.2129 13.0864 80.4385C12.942 80.6642 12.8875 80.9362 12.9338 81.2004L13.3318 82.6962L11.8351 83.1015C11.6956 83.1321 11.5637 83.1907 11.4473 83.2737C11.3308 83.3567 11.2322 83.4625 11.1574 83.5847C11.0826 83.7069 11.0331 83.843 11.0118 83.9849C10.9906 84.1268 10.998 84.2715 11.0338 84.4104C11.0695 84.5494 11.1327 84.6796 11.2197 84.7934C11.3067 84.9072 11.4156 85.0021 11.54 85.0726C11.6644 85.1431 11.8016 85.1877 11.9435 85.2036C12.0854 85.2195 12.2291 85.2065 12.3659 85.1654L14.4888 84.6108L16.8771 86L14.4888 87.3892L12.3659 86.8346C12.0977 86.7758 11.8172 86.8237 11.5834 86.9682C11.3495 87.1128 11.1805 87.3427 11.1119 87.6098C11.0432 87.8769 11.0801 88.1604 11.215 88.4006C11.3499 88.6409 11.5721 88.8193 11.8351 88.8985L13.3345 89.2931L12.9338 90.7996C12.8859 90.9388 12.8672 91.0863 12.8789 91.233C12.8906 91.3797 12.9323 91.5225 13.0015 91.6522C13.0708 91.7819 13.166 91.8958 13.2811 91.9867C13.3963 92.0777 13.529 92.1437 13.6708 92.1806C13.8126 92.2175 13.9604 92.2245 14.1051 92.2012C14.2497 92.1779 14.388 92.1248 14.5112 92.0451C14.6344 91.9655 14.7398 91.8611 14.8209 91.7386C14.902 91.616 14.957 91.4779 14.9824 91.3329L15.5503 89.2371L17.9385 87.8479V90.6237L16.3915 92.1782Z" fill="#FDFEF8"/>
<path d="M60.3915 92.1782C60.2928 92.2773 60.2146 92.395 60.1612 92.5244C60.1079 92.6539 60.0804 92.7927 60.0804 92.9328C60.0804 93.073 60.1079 93.2117 60.1612 93.3412C60.2146 93.4707 60.2928 93.5883 60.3915 93.6874C60.4901 93.7865 60.6072 93.8651 60.736 93.9188C60.8649 93.9724 61.003 94 61.1424 94C61.2819 94 61.42 93.9724 61.5489 93.9188C61.6777 93.8651 61.7948 93.7865 61.8934 93.6874L63 92.5755L64.1066 93.6874C64.2052 93.7865 64.3223 93.8651 64.4511 93.9188C64.58 93.9724 64.7181 94 64.8576 94C64.997 94 65.1351 93.9724 65.264 93.9188C65.3928 93.8651 65.5099 93.7865 65.6085 93.6874C65.7072 93.5883 65.7854 93.4707 65.8388 93.3412C65.8921 93.2117 65.9196 93.073 65.9196 92.9328C65.9196 92.7927 65.8921 92.6539 65.8388 92.5244C65.7854 92.395 65.7072 92.2773 65.6085 92.1782L64.0615 90.6237V87.8479L66.4497 89.2371L67.0176 91.3329C67.1048 91.5865 67.2839 91.7977 67.5192 91.9245C67.7544 92.0512 68.0286 92.0843 68.287 92.017C68.5455 91.9497 68.7692 91.7871 68.9136 91.5615C69.058 91.3358 69.1125 91.0638 69.0662 90.7996L68.6682 89.3038L70.1649 88.8985C70.3044 88.8679 70.4363 88.8093 70.5527 88.7263C70.6692 88.6433 70.7678 88.5375 70.8426 88.4153C70.9174 88.2931 70.9669 88.157 70.9882 88.0151C71.0094 87.8732 71.002 87.7285 70.9662 87.5895C70.9305 87.4506 70.8673 87.3204 70.7803 87.2066C70.6933 87.0928 70.5844 86.9979 70.46 86.9274C70.3356 86.8569 70.1984 86.8123 70.0565 86.7964C69.9146 86.7805 69.7709 86.7935 69.6341 86.8346L67.5112 87.3892L65.1229 86L67.5112 84.6108L69.6341 85.1654C69.7709 85.2065 69.9146 85.2195 70.0565 85.2036C70.1984 85.1877 70.3356 85.1431 70.46 85.0726C70.5844 85.0021 70.6933 84.9072 70.7803 84.7934C70.8673 84.6796 70.9305 84.5494 70.9662 84.4104C71.002 84.2715 71.0094 84.1268 70.9882 83.9849C70.9669 83.843 70.9174 83.7069 70.8426 83.5847C70.7678 83.4625 70.6692 83.3567 70.5527 83.2737C70.4363 83.1907 70.3044 83.1321 70.1649 83.1015L68.6655 82.7069L69.0662 81.2004C69.1125 80.9362 69.058 80.6642 68.9136 80.4385C68.7692 80.2129 68.5455 80.0503 68.287 79.983C68.0286 79.9157 67.7544 79.9488 67.5192 80.0755C67.2839 80.2023 67.1048 80.4135 67.0176 80.6671L66.4497 82.7629L64.0615 84.1521V81.3763L65.6085 79.8218C65.8077 79.6217 65.9196 79.3502 65.9196 79.0672C65.9196 78.7841 65.8077 78.5127 65.6085 78.3126C65.4094 78.1124 65.1392 78 64.8576 78C64.5759 78 64.3057 78.1124 64.1066 78.3126L63 79.4245L61.8934 78.3126C61.7948 78.2135 61.6777 78.1349 61.5489 78.0812C61.42 78.0276 61.2819 78 61.1424 78C61.003 78 60.8649 78.0276 60.736 78.0812C60.6072 78.1349 60.4901 78.2135 60.3915 78.3126C60.2928 78.4117 60.2146 78.5293 60.1612 78.6588C60.1079 78.7883 60.0804 78.927 60.0804 79.0672C60.0804 79.2073 60.1079 79.3461 60.1612 79.4756C60.2146 79.605 60.2928 79.7227 60.3915 79.8218L61.9385 81.3763V84.1521L59.5503 82.7629L58.9824 80.6671C58.8952 80.4135 58.7161 80.2023 58.4808 80.0755C58.2455 79.9488 57.9714 79.9157 57.713 79.983C57.4545 80.0503 57.2308 80.2129 57.0864 80.4385C56.942 80.6642 56.8875 80.9362 56.9338 81.2004L57.3318 82.6962L55.8351 83.1015C55.6956 83.1321 55.5637 83.1907 55.4473 83.2737C55.3308 83.3567 55.2322 83.4625 55.1574 83.5847C55.0826 83.7069 55.0331 83.843 55.0118 83.9849C54.9906 84.1268 54.998 84.2715 55.0338 84.4104C55.0695 84.5494 55.1327 84.6796 55.2197 84.7934C55.3067 84.9072 55.4156 85.0021 55.54 85.0726C55.6644 85.1431 55.8016 85.1877 55.9435 85.2036C56.0854 85.2195 56.2291 85.2065 56.3659 85.1654L58.4888 84.6108L60.8771 86L58.4888 87.3892L56.3659 86.8346C56.0977 86.7758 55.8172 86.8237 55.5834 86.9682C55.3495 87.1128 55.1805 87.3427 55.1119 87.6098C55.0432 87.8769 55.0801 88.1604 55.215 88.4006C55.3499 88.6409 55.5721 88.8193 55.8351 88.8985L57.3345 89.2931L56.9338 90.7996C56.8859 90.9388 56.8672 91.0863 56.8789 91.233C56.8906 91.3797 56.9323 91.5225 57.0015 91.6522C57.0708 91.7819 57.166 91.8958 57.2811 91.9867C57.3963 92.0777 57.529 92.1437 57.6708 92.1806C57.8126 92.2175 57.9604 92.2245 58.1051 92.2012C58.2497 92.1779 58.388 92.1248 58.5112 92.0451C58.6344 91.9655 58.7398 91.8611 58.8209 91.7386C58.902 91.616 58.957 91.4779 58.9824 91.3329L59.5503 89.2371L61.9385 87.8479V90.6237L60.3915 92.1782Z" fill="#FDFEF8"/>
<path d="M38.3915 92.1782C38.2928 92.2773 38.2146 92.395 38.1612 92.5244C38.1079 92.6539 38.0804 92.7927 38.0804 92.9328C38.0804 93.073 38.1079 93.2117 38.1612 93.3412C38.2146 93.4707 38.2928 93.5883 38.3915 93.6874C38.4901 93.7865 38.6072 93.8651 38.736 93.9188C38.8649 93.9724 39.003 94 39.1424 94C39.2819 94 39.42 93.9724 39.5489 93.9188C39.6777 93.8651 39.7948 93.7865 39.8934 93.6874L41 92.5755L42.1066 93.6874C42.2052 93.7865 42.3223 93.8651 42.4511 93.9188C42.58 93.9724 42.7181 94 42.8576 94C42.997 94 43.1351 93.9724 43.264 93.9188C43.3928 93.8651 43.5099 93.7865 43.6085 93.6874C43.7072 93.5883 43.7854 93.4707 43.8388 93.3412C43.8921 93.2117 43.9196 93.073 43.9196 92.9328C43.9196 92.7927 43.8921 92.6539 43.8388 92.5244C43.7854 92.395 43.7072 92.2773 43.6085 92.1782L42.0615 90.6237V87.8479L44.4497 89.2371L45.0176 91.3329C45.1048 91.5865 45.2839 91.7977 45.5192 91.9245C45.7544 92.0512 46.0286 92.0843 46.287 92.017C46.5455 91.9497 46.7692 91.7871 46.9136 91.5615C47.058 91.3358 47.1125 91.0638 47.0662 90.7996L46.6682 89.3038L48.1649 88.8985C48.3044 88.8679 48.4363 88.8093 48.5527 88.7263C48.6692 88.6433 48.7678 88.5375 48.8426 88.4153C48.9174 88.2931 48.9669 88.157 48.9882 88.0151C49.0094 87.8732 49.002 87.7285 48.9662 87.5895C48.9305 87.4506 48.8673 87.3204 48.7803 87.2066C48.6933 87.0928 48.5844 86.9979 48.46 86.9274C48.3356 86.8569 48.1984 86.8123 48.0565 86.7964C47.9146 86.7805 47.7709 86.7935 47.6341 86.8346L45.5112 87.3892L43.1229 86L45.5112 84.6108L47.6341 85.1654C47.7709 85.2065 47.9146 85.2195 48.0565 85.2036C48.1984 85.1877 48.3356 85.1431 48.46 85.0726C48.5844 85.0021 48.6933 84.9072 48.7803 84.7934C48.8673 84.6796 48.9305 84.5494 48.9662 84.4104C49.002 84.2715 49.0094 84.1268 48.9882 83.9849C48.9669 83.843 48.9174 83.7069 48.8426 83.5847C48.7678 83.4625 48.6692 83.3567 48.5527 83.2737C48.4363 83.1907 48.3044 83.1321 48.1649 83.1015L46.6655 82.7069L47.0662 81.2004C47.1125 80.9362 47.058 80.6642 46.9136 80.4385C46.7692 80.2129 46.5455 80.0503 46.287 79.983C46.0286 79.9157 45.7544 79.9488 45.5192 80.0755C45.2839 80.2023 45.1048 80.4135 45.0176 80.6671L44.4497 82.7629L42.0615 84.1521V81.3763L43.6085 79.8218C43.8077 79.6217 43.9196 79.3502 43.9196 79.0672C43.9196 78.7841 43.8077 78.5127 43.6085 78.3126C43.4094 78.1124 43.1392 78 42.8576 78C42.5759 78 42.3057 78.1124 42.1066 78.3126L41 79.4245L39.8934 78.3126C39.7948 78.2135 39.6777 78.1349 39.5489 78.0812C39.42 78.0276 39.2819 78 39.1424 78C39.003 78 38.8649 78.0276 38.736 78.0812C38.6072 78.1349 38.4901 78.2135 38.3915 78.3126C38.2928 78.4117 38.2146 78.5293 38.1612 78.6588C38.1079 78.7883 38.0804 78.927 38.0804 79.0672C38.0804 79.2073 38.1079 79.3461 38.1612 79.4756C38.2146 79.605 38.2928 79.7227 38.3915 79.8218L39.9385 81.3763V84.1521L37.5503 82.7629L36.9824 80.6671C36.8952 80.4135 36.7161 80.2023 36.4808 80.0755C36.2455 79.9488 35.9714 79.9157 35.713 79.983C35.4545 80.0503 35.2308 80.2129 35.0864 80.4385C34.942 80.6642 34.8875 80.9362 34.9338 81.2004L35.3318 82.6962L33.8351 83.1015C33.6956 83.1321 33.5637 83.1907 33.4473 83.2737C33.3308 83.3567 33.2322 83.4625 33.1574 83.5847C33.0826 83.7069 33.0331 83.843 33.0118 83.9849C32.9906 84.1268 32.998 84.2715 33.0338 84.4104C33.0695 84.5494 33.1327 84.6796 33.2197 84.7934C33.3067 84.9072 33.4156 85.0021 33.54 85.0726C33.6644 85.1431 33.8016 85.1877 33.9435 85.2036C34.0854 85.2195 34.2291 85.2065 34.3659 85.1654L36.4888 84.6108L38.8771 86L36.4888 87.3892L34.3659 86.8346C34.0977 86.7758 33.8172 86.8237 33.5834 86.9682C33.3495 87.1128 33.1805 87.3427 33.1119 87.6098C33.0432 87.8769 33.0801 88.1604 33.215 88.4006C33.3499 88.6409 33.5721 88.8193 33.8351 88.8985L35.3345 89.2931L34.9338 90.7996C34.8859 90.9388 34.8672 91.0863 34.8789 91.233C34.8906 91.3797 34.9323 91.5225 35.0015 91.6522C35.0708 91.7819 35.166 91.8958 35.2811 91.9867C35.3963 92.0777 35.529 92.1437 35.6708 92.1806C35.8126 92.2175 35.9604 92.2245 36.1051 92.2012C36.2497 92.1779 36.388 92.1248 36.5112 92.0451C36.6344 91.9655 36.7398 91.8611 36.8209 91.7386C36.902 91.616 36.957 91.4779 36.9824 91.3329L37.5503 89.2371L39.9385 87.8479V90.6237L38.3915 92.1782Z" fill="#FDFEF8"/>
</svg>
