<svg width="98" height="85" viewBox="0 0 98 85" fill="none" xmlns="http://www.w3.org/2000/svg">
<path d="M67 34H65.9609C65.4492 27.2969 59.832 22 52.9999 22C51.1249 22 49.2616 22.4102 47.5663 23.1875C44.1366 19.2461 39.2382 17 34.0003 17C24.4105 17 16.5473 24.5391 16.0273 34H15C6.7266 34 0 40.7305 0 49C0 57.2695 6.7266 64 15 64H67C75.2734 64 82 57.2695 82 49C82 40.7305 75.2734 34 67 34Z" fill="#FDFEF8"/>
<path d="M70.4658 0C71.2591 0 71.7879 0.935227 71.3915 1.60352C69.6063 4.67774 68.6805 8.28731 68.8788 12.0967C69.4079 21.386 76.8133 28.8705 86.0038 29.4053C86.4005 29.4721 86.7312 29.4727 87.1279 29.4727C90.5661 29.4727 93.7402 28.6034 96.4511 26.9326C96.5834 26.8658 96.8482 26.7988 96.9804 26.7988C97.6414 26.7991 98.2357 27.5345 97.9052 28.2695C95.2022 34.7372 89.5078 39.5756 82.5497 41.002C80.1383 35.8857 74.9729 32.3399 68.9999 32.3398H67.9609C67.5002 26.2419 62.9025 21.296 57.0058 20.3691C56.797 11.2548 62.2539 3.43599 70.0693 0.133789C70.2015 0.0669848 70.3336 3.32618e-05 70.4658 0Z" fill="#FDFEF8"/>
<path d="M16.3915 83.1782C16.2928 83.2773 16.2146 83.395 16.1612 83.5244C16.1079 83.6539 16.0804 83.7927 16.0804 83.9328C16.0804 84.073 16.1079 84.2117 16.1612 84.3412C16.2146 84.4707 16.2928 84.5883 16.3915 84.6874C16.4901 84.7865 16.6072 84.8651 16.736 84.9188C16.8649 84.9724 17.003 85 17.1424 85C17.2819 85 17.42 84.9724 17.5489 84.9188C17.6777 84.8651 17.7948 84.7865 17.8934 84.6874L19 83.5755L20.1066 84.6874C20.2052 84.7865 20.3223 84.8651 20.4511 84.9188C20.58 84.9724 20.7181 85 20.8576 85C20.997 85 21.1351 84.9724 21.264 84.9188C21.3928 84.8651 21.5099 84.7865 21.6085 84.6874C21.7072 84.5883 21.7854 84.4707 21.8388 84.3412C21.8921 84.2117 21.9196 84.073 21.9196 83.9328C21.9196 83.7927 21.8921 83.6539 21.8388 83.5244C21.7854 83.395 21.7072 83.2773 21.6085 83.1782L20.0615 81.6237V78.8479L22.4497 80.2371L23.0176 82.3329C23.1048 82.5865 23.2839 82.7977 23.5192 82.9245C23.7544 83.0512 24.0286 83.0843 24.287 83.017C24.5455 82.9497 24.7692 82.7871 24.9136 82.5615C25.058 82.3358 25.1125 82.0638 25.0662 81.7996L24.6682 80.3038L26.1649 79.8985C26.3044 79.8679 26.4363 79.8093 26.5527 79.7263C26.6692 79.6433 26.7678 79.5375 26.8426 79.4153C26.9174 79.2931 26.9669 79.157 26.9882 79.0151C27.0094 78.8732 27.002 78.7285 26.9662 78.5895C26.9305 78.4506 26.8673 78.3204 26.7803 78.2066C26.6933 78.0928 26.5844 77.9979 26.46 77.9274C26.3356 77.8569 26.1984 77.8123 26.0565 77.7964C25.9146 77.7805 25.7709 77.7935 25.6341 77.8346L23.5112 78.3892L21.1229 77L23.5112 75.6108L25.6341 76.1654C25.7709 76.2065 25.9146 76.2195 26.0565 76.2036C26.1984 76.1877 26.3356 76.1431 26.46 76.0726C26.5844 76.0021 26.6933 75.9072 26.7803 75.7934C26.8673 75.6796 26.9305 75.5494 26.9662 75.4104C27.002 75.2715 27.0094 75.1268 26.9882 74.9849C26.9669 74.843 26.9174 74.7069 26.8426 74.5847C26.7678 74.4625 26.6692 74.3567 26.5527 74.2737C26.4363 74.1907 26.3044 74.1321 26.1649 74.1015L24.6655 73.7069L25.0662 72.2004C25.1125 71.9362 25.058 71.6642 24.9136 71.4385C24.7692 71.2129 24.5455 71.0503 24.287 70.983C24.0286 70.9157 23.7544 70.9488 23.5192 71.0755C23.2839 71.2023 23.1048 71.4135 23.0176 71.6671L22.4497 73.7629L20.0615 75.1521V72.3763L21.6085 70.8218C21.8077 70.6217 21.9196 70.3502 21.9196 70.0672C21.9196 69.7841 21.8077 69.5127 21.6085 69.3126C21.4094 69.1124 21.1392 69 20.8576 69C20.5759 69 20.3057 69.1124 20.1066 69.3126L19 70.4245L17.8934 69.3126C17.7948 69.2135 17.6777 69.1349 17.5489 69.0812C17.42 69.0276 17.2819 69 17.1424 69C17.003 69 16.8649 69.0276 16.736 69.0812C16.6072 69.1349 16.4901 69.2135 16.3915 69.3126C16.2928 69.4117 16.2146 69.5293 16.1612 69.6588C16.1079 69.7883 16.0804 69.927 16.0804 70.0672C16.0804 70.2073 16.1079 70.3461 16.1612 70.4756C16.2146 70.605 16.2928 70.7227 16.3915 70.8218L17.9385 72.3763V75.1521L15.5503 73.7629L14.9824 71.6671C14.8952 71.4135 14.7161 71.2023 14.4808 71.0755C14.2455 70.9488 13.9714 70.9157 13.713 70.983C13.4545 71.0503 13.2308 71.2129 13.0864 71.4385C12.942 71.6642 12.8875 71.9362 12.9338 72.2004L13.3318 73.6962L11.8351 74.1015C11.6956 74.1321 11.5637 74.1907 11.4473 74.2737C11.3308 74.3567 11.2322 74.4625 11.1574 74.5847C11.0826 74.7069 11.0331 74.843 11.0118 74.9849C10.9906 75.1268 10.998 75.2715 11.0338 75.4104C11.0695 75.5494 11.1327 75.6796 11.2197 75.7934C11.3067 75.9072 11.4156 76.0021 11.54 76.0726C11.6644 76.1431 11.8016 76.1877 11.9435 76.2036C12.0854 76.2195 12.2291 76.2065 12.3659 76.1654L14.4888 75.6108L16.8771 77L14.4888 78.3892L12.3659 77.8346C12.0977 77.7758 11.8172 77.8237 11.5834 77.9682C11.3495 78.1128 11.1805 78.3427 11.1119 78.6098C11.0432 78.8769 11.0801 79.1604 11.215 79.4006C11.3499 79.6409 11.5721 79.8193 11.8351 79.8985L13.3345 80.2931L12.9338 81.7996C12.8859 81.9388 12.8672 82.0863 12.8789 82.233C12.8906 82.3797 12.9323 82.5225 13.0015 82.6522C13.0708 82.7819 13.166 82.8958 13.2811 82.9867C13.3963 83.0777 13.529 83.1437 13.6708 83.1806C13.8126 83.2175 13.9604 83.2245 14.1051 83.2012C14.2497 83.1779 14.388 83.1248 14.5112 83.0451C14.6344 82.9655 14.7398 82.8611 14.8209 82.7386C14.902 82.616 14.957 82.4779 14.9824 82.3329L15.5503 80.2371L17.9385 78.8479V81.6237L16.3915 83.1782Z" fill="#FDFEF8"/>
<path d="M60.3915 83.1782C60.2928 83.2773 60.2146 83.395 60.1612 83.5244C60.1079 83.6539 60.0804 83.7927 60.0804 83.9328C60.0804 84.073 60.1079 84.2117 60.1612 84.3412C60.2146 84.4707 60.2928 84.5883 60.3915 84.6874C60.4901 84.7865 60.6072 84.8651 60.736 84.9188C60.8649 84.9724 61.003 85 61.1424 85C61.2819 85 61.42 84.9724 61.5489 84.9188C61.6777 84.8651 61.7948 84.7865 61.8934 84.6874L63 83.5755L64.1066 84.6874C64.2052 84.7865 64.3223 84.8651 64.4511 84.9188C64.58 84.9724 64.7181 85 64.8576 85C64.997 85 65.1351 84.9724 65.264 84.9188C65.3928 84.8651 65.5099 84.7865 65.6085 84.6874C65.7072 84.5883 65.7854 84.4707 65.8388 84.3412C65.8921 84.2117 65.9196 84.073 65.9196 83.9328C65.9196 83.7927 65.8921 83.6539 65.8388 83.5244C65.7854 83.395 65.7072 83.2773 65.6085 83.1782L64.0615 81.6237V78.8479L66.4497 80.2371L67.0176 82.3329C67.1048 82.5865 67.2839 82.7977 67.5192 82.9245C67.7544 83.0512 68.0286 83.0843 68.287 83.017C68.5455 82.9497 68.7692 82.7871 68.9136 82.5615C69.058 82.3358 69.1125 82.0638 69.0662 81.7996L68.6682 80.3038L70.1649 79.8985C70.3044 79.8679 70.4363 79.8093 70.5527 79.7263C70.6692 79.6433 70.7678 79.5375 70.8426 79.4153C70.9174 79.2931 70.9669 79.157 70.9882 79.0151C71.0094 78.8732 71.002 78.7285 70.9662 78.5895C70.9305 78.4506 70.8673 78.3204 70.7803 78.2066C70.6933 78.0928 70.5844 77.9979 70.46 77.9274C70.3356 77.8569 70.1984 77.8123 70.0565 77.7964C69.9146 77.7805 69.7709 77.7935 69.6341 77.8346L67.5112 78.3892L65.1229 77L67.5112 75.6108L69.6341 76.1654C69.7709 76.2065 69.9146 76.2195 70.0565 76.2036C70.1984 76.1877 70.3356 76.1431 70.46 76.0726C70.5844 76.0021 70.6933 75.9072 70.7803 75.7934C70.8673 75.6796 70.9305 75.5494 70.9662 75.4104C71.002 75.2715 71.0094 75.1268 70.9882 74.9849C70.9669 74.843 70.9174 74.7069 70.8426 74.5847C70.7678 74.4625 70.6692 74.3567 70.5527 74.2737C70.4363 74.1907 70.3044 74.1321 70.1649 74.1015L68.6655 73.7069L69.0662 72.2004C69.1125 71.9362 69.058 71.6642 68.9136 71.4385C68.7692 71.2129 68.5455 71.0503 68.287 70.983C68.0286 70.9157 67.7544 70.9488 67.5192 71.0755C67.2839 71.2023 67.1048 71.4135 67.0176 71.6671L66.4497 73.7629L64.0615 75.1521V72.3763L65.6085 70.8218C65.8077 70.6217 65.9196 70.3502 65.9196 70.0672C65.9196 69.7841 65.8077 69.5127 65.6085 69.3126C65.4094 69.1124 65.1392 69 64.8576 69C64.5759 69 64.3057 69.1124 64.1066 69.3126L63 70.4245L61.8934 69.3126C61.7948 69.2135 61.6777 69.1349 61.5489 69.0812C61.42 69.0276 61.2819 69 61.1424 69C61.003 69 60.8649 69.0276 60.736 69.0812C60.6072 69.1349 60.4901 69.2135 60.3915 69.3126C60.2928 69.4117 60.2146 69.5293 60.1612 69.6588C60.1079 69.7883 60.0804 69.927 60.0804 70.0672C60.0804 70.2073 60.1079 70.3461 60.1612 70.4756C60.2146 70.605 60.2928 70.7227 60.3915 70.8218L61.9385 72.3763V75.1521L59.5503 73.7629L58.9824 71.6671C58.8952 71.4135 58.7161 71.2023 58.4808 71.0755C58.2455 70.9488 57.9714 70.9157 57.713 70.983C57.4545 71.0503 57.2308 71.2129 57.0864 71.4385C56.942 71.6642 56.8875 71.9362 56.9338 72.2004L57.3318 73.6962L55.8351 74.1015C55.6956 74.1321 55.5637 74.1907 55.4473 74.2737C55.3308 74.3567 55.2322 74.4625 55.1574 74.5847C55.0826 74.7069 55.0331 74.843 55.0118 74.9849C54.9906 75.1268 54.998 75.2715 55.0338 75.4104C55.0695 75.5494 55.1327 75.6796 55.2197 75.7934C55.3067 75.9072 55.4156 76.0021 55.54 76.0726C55.6644 76.1431 55.8016 76.1877 55.9435 76.2036C56.0854 76.2195 56.2291 76.2065 56.3659 76.1654L58.4888 75.6108L60.8771 77L58.4888 78.3892L56.3659 77.8346C56.0977 77.7758 55.8172 77.8237 55.5834 77.9682C55.3495 78.1128 55.1805 78.3427 55.1119 78.6098C55.0432 78.8769 55.0801 79.1604 55.215 79.4006C55.3499 79.6409 55.5721 79.8193 55.8351 79.8985L57.3345 80.2931L56.9338 81.7996C56.8859 81.9388 56.8672 82.0863 56.8789 82.233C56.8906 82.3797 56.9323 82.5225 57.0015 82.6522C57.0708 82.7819 57.166 82.8958 57.2811 82.9867C57.3963 83.0777 57.529 83.1437 57.6708 83.1806C57.8126 83.2175 57.9604 83.2245 58.1051 83.2012C58.2497 83.1779 58.388 83.1248 58.5112 83.0451C58.6344 82.9655 58.7398 82.8611 58.8209 82.7386C58.902 82.616 58.957 82.4779 58.9824 82.3329L59.5503 80.2371L61.9385 78.8479V81.6237L60.3915 83.1782Z" fill="#FDFEF8"/>
<path d="M38.3915 83.1782C38.2928 83.2773 38.2146 83.395 38.1612 83.5244C38.1079 83.6539 38.0804 83.7927 38.0804 83.9328C38.0804 84.073 38.1079 84.2117 38.1612 84.3412C38.2146 84.4707 38.2928 84.5883 38.3915 84.6874C38.4901 84.7865 38.6072 84.8651 38.736 84.9188C38.8649 84.9724 39.003 85 39.1424 85C39.2819 85 39.42 84.9724 39.5489 84.9188C39.6777 84.8651 39.7948 84.7865 39.8934 84.6874L41 83.5755L42.1066 84.6874C42.2052 84.7865 42.3223 84.8651 42.4511 84.9188C42.58 84.9724 42.7181 85 42.8576 85C42.997 85 43.1351 84.9724 43.264 84.9188C43.3928 84.8651 43.5099 84.7865 43.6085 84.6874C43.7072 84.5883 43.7854 84.4707 43.8388 84.3412C43.8921 84.2117 43.9196 84.073 43.9196 83.9328C43.9196 83.7927 43.8921 83.6539 43.8388 83.5244C43.7854 83.395 43.7072 83.2773 43.6085 83.1782L42.0615 81.6237V78.8479L44.4497 80.2371L45.0176 82.3329C45.1048 82.5865 45.2839 82.7977 45.5192 82.9245C45.7544 83.0512 46.0286 83.0843 46.287 83.017C46.5455 82.9497 46.7692 82.7871 46.9136 82.5615C47.058 82.3358 47.1125 82.0638 47.0662 81.7996L46.6682 80.3038L48.1649 79.8985C48.3044 79.8679 48.4363 79.8093 48.5527 79.7263C48.6692 79.6433 48.7678 79.5375 48.8426 79.4153C48.9174 79.2931 48.9669 79.157 48.9882 79.0151C49.0094 78.8732 49.002 78.7285 48.9662 78.5895C48.9305 78.4506 48.8673 78.3204 48.7803 78.2066C48.6933 78.0928 48.5844 77.9979 48.46 77.9274C48.3356 77.8569 48.1984 77.8123 48.0565 77.7964C47.9146 77.7805 47.7709 77.7935 47.6341 77.8346L45.5112 78.3892L43.1229 77L45.5112 75.6108L47.6341 76.1654C47.7709 76.2065 47.9146 76.2195 48.0565 76.2036C48.1984 76.1877 48.3356 76.1431 48.46 76.0726C48.5844 76.0021 48.6933 75.9072 48.7803 75.7934C48.8673 75.6796 48.9305 75.5494 48.9662 75.4104C49.002 75.2715 49.0094 75.1268 48.9882 74.9849C48.9669 74.843 48.9174 74.7069 48.8426 74.5847C48.7678 74.4625 48.6692 74.3567 48.5527 74.2737C48.4363 74.1907 48.3044 74.1321 48.1649 74.1015L46.6655 73.7069L47.0662 72.2004C47.1125 71.9362 47.058 71.6642 46.9136 71.4385C46.7692 71.2129 46.5455 71.0503 46.287 70.983C46.0286 70.9157 45.7544 70.9488 45.5192 71.0755C45.2839 71.2023 45.1048 71.4135 45.0176 71.6671L44.4497 73.7629L42.0615 75.1521V72.3763L43.6085 70.8218C43.8077 70.6217 43.9196 70.3502 43.9196 70.0672C43.9196 69.7841 43.8077 69.5127 43.6085 69.3126C43.4094 69.1124 43.1392 69 42.8576 69C42.5759 69 42.3057 69.1124 42.1066 69.3126L41 70.4245L39.8934 69.3126C39.7948 69.2135 39.6777 69.1349 39.5489 69.0812C39.42 69.0276 39.2819 69 39.1424 69C39.003 69 38.8649 69.0276 38.736 69.0812C38.6072 69.1349 38.4901 69.2135 38.3915 69.3126C38.2928 69.4117 38.2146 69.5293 38.1612 69.6588C38.1079 69.7883 38.0804 69.927 38.0804 70.0672C38.0804 70.2073 38.1079 70.3461 38.1612 70.4756C38.2146 70.605 38.2928 70.7227 38.3915 70.8218L39.9385 72.3763V75.1521L37.5503 73.7629L36.9824 71.6671C36.8952 71.4135 36.7161 71.2023 36.4808 71.0755C36.2455 70.9488 35.9714 70.9157 35.713 70.983C35.4545 71.0503 35.2308 71.2129 35.0864 71.4385C34.942 71.6642 34.8875 71.9362 34.9338 72.2004L35.3318 73.6962L33.8351 74.1015C33.6956 74.1321 33.5637 74.1907 33.4473 74.2737C33.3308 74.3567 33.2322 74.4625 33.1574 74.5847C33.0826 74.7069 33.0331 74.843 33.0118 74.9849C32.9906 75.1268 32.998 75.2715 33.0338 75.4104C33.0695 75.5494 33.1327 75.6796 33.2197 75.7934C33.3067 75.9072 33.4156 76.0021 33.54 76.0726C33.6644 76.1431 33.8016 76.1877 33.9435 76.2036C34.0854 76.2195 34.2291 76.2065 34.3659 76.1654L36.4888 75.6108L38.8771 77L36.4888 78.3892L34.3659 77.8346C34.0977 77.7758 33.8172 77.8237 33.5834 77.9682C33.3495 78.1128 33.1805 78.3427 33.1119 78.6098C33.0432 78.8769 33.0801 79.1604 33.215 79.4006C33.3499 79.6409 33.5721 79.8193 33.8351 79.8985L35.3345 80.2931L34.9338 81.7996C34.8859 81.9388 34.8672 82.0863 34.8789 82.233C34.8906 82.3797 34.9323 82.5225 35.0015 82.6522C35.0708 82.7819 35.166 82.8958 35.2811 82.9867C35.3963 83.0777 35.529 83.1437 35.6708 83.1806C35.8126 83.2175 35.9604 83.2245 36.1051 83.2012C36.2497 83.1779 36.388 83.1248 36.5112 83.0451C36.6344 82.9655 36.7398 82.8611 36.8209 82.7386C36.902 82.616 36.957 82.4779 36.9824 82.3329L37.5503 80.2371L39.9385 78.8479V81.6237L38.3915 83.1782Z" fill="#FDFEF8"/>
</svg>
