<svg width="82" height="68" viewBox="0 0 82 68" fill="none" xmlns="http://www.w3.org/2000/svg">
<path d="M67 17H65.9609C65.4492 10.2969 59.832 5 52.9999 5C51.1249 5 49.2616 5.41016 47.5663 6.1875C44.1366 2.2461 39.2382 0 34.0003 0C24.4105 0 16.5473 7.5391 16.0273 17H15C6.7266 17 0 23.7305 0 32C0 40.2695 6.7266 47 15 47H67C75.2734 47 82 40.2695 82 32C82 23.7305 75.2734 17 67 17Z" fill="#FDFEF8"/>
<path d="M16.3915 66.1782C16.2928 66.2773 16.2146 66.395 16.1612 66.5244C16.1079 66.6539 16.0804 66.7927 16.0804 66.9328C16.0804 67.073 16.1079 67.2117 16.1612 67.3412C16.2146 67.4707 16.2928 67.5883 16.3915 67.6874C16.4901 67.7865 16.6072 67.8651 16.736 67.9188C16.8649 67.9724 17.003 68 17.1424 68C17.2819 68 17.42 67.9724 17.5489 67.9188C17.6777 67.8651 17.7948 67.7865 17.8934 67.6874L19 66.5755L20.1066 67.6874C20.2052 67.7865 20.3223 67.8651 20.4511 67.9188C20.58 67.9724 20.7181 68 20.8576 68C20.997 68 21.1351 67.9724 21.264 67.9188C21.3928 67.8651 21.5099 67.7865 21.6085 67.6874C21.7072 67.5883 21.7854 67.4707 21.8388 67.3412C21.8921 67.2117 21.9196 67.073 21.9196 66.9328C21.9196 66.7927 21.8921 66.6539 21.8388 66.5244C21.7854 66.395 21.7072 66.2773 21.6085 66.1782L20.0615 64.6237V61.8479L22.4497 63.2371L23.0176 65.3329C23.1048 65.5865 23.2839 65.7977 23.5192 65.9245C23.7544 66.0512 24.0286 66.0843 24.287 66.017C24.5455 65.9497 24.7692 65.7871 24.9136 65.5615C25.058 65.3358 25.1125 65.0638 25.0662 64.7996L24.6682 63.3038L26.1649 62.8985C26.3044 62.8679 26.4363 62.8093 26.5527 62.7263C26.6692 62.6433 26.7678 62.5375 26.8426 62.4153C26.9174 62.2931 26.9669 62.157 26.9882 62.0151C27.0094 61.8732 27.002 61.7285 26.9662 61.5895C26.9305 61.4506 26.8673 61.3204 26.7803 61.2066C26.6933 61.0928 26.5844 60.9979 26.46 60.9274C26.3356 60.8569 26.1984 60.8123 26.0565 60.7964C25.9146 60.7805 25.7709 60.7935 25.6341 60.8346L23.5112 61.3892L21.1229 60L23.5112 58.6108L25.6341 59.1654C25.7709 59.2065 25.9146 59.2195 26.0565 59.2036C26.1984 59.1877 26.3356 59.1431 26.46 59.0726C26.5844 59.0021 26.6933 58.9072 26.7803 58.7934C26.8673 58.6796 26.9305 58.5494 26.9662 58.4104C27.002 58.2715 27.0094 58.1268 26.9882 57.9849C26.9669 57.843 26.9174 57.7069 26.8426 57.5847C26.7678 57.4625 26.6692 57.3567 26.5527 57.2737C26.4363 57.1907 26.3044 57.1321 26.1649 57.1015L24.6655 56.7069L25.0662 55.2004C25.1125 54.9362 25.058 54.6642 24.9136 54.4385C24.7692 54.2129 24.5455 54.0503 24.287 53.983C24.0286 53.9157 23.7544 53.9488 23.5192 54.0755C23.2839 54.2023 23.1048 54.4135 23.0176 54.6671L22.4497 56.7629L20.0615 58.1521V55.3763L21.6085 53.8218C21.8077 53.6217 21.9196 53.3502 21.9196 53.0672C21.9196 52.7841 21.8077 52.5127 21.6085 52.3126C21.4094 52.1124 21.1392 52 20.8576 52C20.5759 52 20.3057 52.1124 20.1066 52.3126L19 53.4245L17.8934 52.3126C17.7948 52.2135 17.6777 52.1349 17.5489 52.0812C17.42 52.0276 17.2819 52 17.1424 52C17.003 52 16.8649 52.0276 16.736 52.0812C16.6072 52.1349 16.4901 52.2135 16.3915 52.3126C16.2928 52.4117 16.2146 52.5293 16.1612 52.6588C16.1079 52.7883 16.0804 52.927 16.0804 53.0672C16.0804 53.2073 16.1079 53.3461 16.1612 53.4756C16.2146 53.605 16.2928 53.7227 16.3915 53.8218L17.9385 55.3763V58.1521L15.5503 56.7629L14.9824 54.6671C14.8952 54.4135 14.7161 54.2023 14.4808 54.0755C14.2455 53.9488 13.9714 53.9157 13.713 53.983C13.4545 54.0503 13.2308 54.2129 13.0864 54.4385C12.942 54.6642 12.8875 54.9362 12.9338 55.2004L13.3318 56.6962L11.8351 57.1015C11.6956 57.1321 11.5637 57.1907 11.4473 57.2737C11.3308 57.3567 11.2322 57.4625 11.1574 57.5847C11.0826 57.7069 11.0331 57.843 11.0118 57.9849C10.9906 58.1268 10.998 58.2715 11.0338 58.4104C11.0695 58.5494 11.1327 58.6796 11.2197 58.7934C11.3067 58.9072 11.4156 59.0021 11.54 59.0726C11.6644 59.1431 11.8016 59.1877 11.9435 59.2036C12.0854 59.2195 12.2291 59.2065 12.3659 59.1654L14.4888 58.6108L16.8771 60L14.4888 61.3892L12.3659 60.8346C12.0977 60.7758 11.8172 60.8237 11.5834 60.9682C11.3495 61.1128 11.1805 61.3427 11.1119 61.6098C11.0432 61.8769 11.0801 62.1604 11.215 62.4006C11.3499 62.6409 11.5721 62.8193 11.8351 62.8985L13.3345 63.2931L12.9338 64.7996C12.8859 64.9388 12.8672 65.0863 12.8789 65.233C12.8906 65.3797 12.9323 65.5225 13.0015 65.6522C13.0708 65.7819 13.166 65.8958 13.2811 65.9867C13.3963 66.0777 13.529 66.1437 13.6708 66.1806C13.8126 66.2175 13.9604 66.2245 14.1051 66.2012C14.2497 66.1779 14.388 66.1248 14.5112 66.0451C14.6344 65.9655 14.7398 65.8611 14.8209 65.7386C14.902 65.616 14.957 65.4779 14.9824 65.3329L15.5503 63.2371L17.9385 61.8479V64.6237L16.3915 66.1782Z" fill="#FDFEF8"/>
<path d="M60.3915 66.1782C60.2928 66.2773 60.2146 66.395 60.1612 66.5244C60.1079 66.6539 60.0804 66.7927 60.0804 66.9328C60.0804 67.073 60.1079 67.2117 60.1612 67.3412C60.2146 67.4707 60.2928 67.5883 60.3915 67.6874C60.4901 67.7865 60.6072 67.8651 60.736 67.9188C60.8649 67.9724 61.003 68 61.1424 68C61.2819 68 61.42 67.9724 61.5489 67.9188C61.6777 67.8651 61.7948 67.7865 61.8934 67.6874L63 66.5755L64.1066 67.6874C64.2052 67.7865 64.3223 67.8651 64.4511 67.9188C64.58 67.9724 64.7181 68 64.8576 68C64.997 68 65.1351 67.9724 65.264 67.9188C65.3928 67.8651 65.5099 67.7865 65.6085 67.6874C65.7072 67.5883 65.7854 67.4707 65.8388 67.3412C65.8921 67.2117 65.9196 67.073 65.9196 66.9328C65.9196 66.7927 65.8921 66.6539 65.8388 66.5244C65.7854 66.395 65.7072 66.2773 65.6085 66.1782L64.0615 64.6237V61.8479L66.4497 63.2371L67.0176 65.3329C67.1048 65.5865 67.2839 65.7977 67.5192 65.9245C67.7544 66.0512 68.0286 66.0843 68.287 66.017C68.5455 65.9497 68.7692 65.7871 68.9136 65.5615C69.058 65.3358 69.1125 65.0638 69.0662 64.7996L68.6682 63.3038L70.1649 62.8985C70.3044 62.8679 70.4363 62.8093 70.5527 62.7263C70.6692 62.6433 70.7678 62.5375 70.8426 62.4153C70.9174 62.2931 70.9669 62.157 70.9882 62.0151C71.0094 61.8732 71.002 61.7285 70.9662 61.5895C70.9305 61.4506 70.8673 61.3204 70.7803 61.2066C70.6933 61.0928 70.5844 60.9979 70.46 60.9274C70.3356 60.8569 70.1984 60.8123 70.0565 60.7964C69.9146 60.7805 69.7709 60.7935 69.6341 60.8346L67.5112 61.3892L65.1229 60L67.5112 58.6108L69.6341 59.1654C69.7709 59.2065 69.9146 59.2195 70.0565 59.2036C70.1984 59.1877 70.3356 59.1431 70.46 59.0726C70.5844 59.0021 70.6933 58.9072 70.7803 58.7934C70.8673 58.6796 70.9305 58.5494 70.9662 58.4104C71.002 58.2715 71.0094 58.1268 70.9882 57.9849C70.9669 57.843 70.9174 57.7069 70.8426 57.5847C70.7678 57.4625 70.6692 57.3567 70.5527 57.2737C70.4363 57.1907 70.3044 57.1321 70.1649 57.1015L68.6655 56.7069L69.0662 55.2004C69.1125 54.9362 69.058 54.6642 68.9136 54.4385C68.7692 54.2129 68.5455 54.0503 68.287 53.983C68.0286 53.9157 67.7544 53.9488 67.5192 54.0755C67.2839 54.2023 67.1048 54.4135 67.0176 54.6671L66.4497 56.7629L64.0615 58.1521V55.3763L65.6085 53.8218C65.8077 53.6217 65.9196 53.3502 65.9196 53.0672C65.9196 52.7841 65.8077 52.5127 65.6085 52.3126C65.4094 52.1124 65.1392 52 64.8576 52C64.5759 52 64.3057 52.1124 64.1066 52.3126L63 53.4245L61.8934 52.3126C61.7948 52.2135 61.6777 52.1349 61.5489 52.0812C61.42 52.0276 61.2819 52 61.1424 52C61.003 52 60.8649 52.0276 60.736 52.0812C60.6072 52.1349 60.4901 52.2135 60.3915 52.3126C60.2928 52.4117 60.2146 52.5293 60.1612 52.6588C60.1079 52.7883 60.0804 52.927 60.0804 53.0672C60.0804 53.2073 60.1079 53.3461 60.1612 53.4756C60.2146 53.605 60.2928 53.7227 60.3915 53.8218L61.9385 55.3763V58.1521L59.5503 56.7629L58.9824 54.6671C58.8952 54.4135 58.7161 54.2023 58.4808 54.0755C58.2455 53.9488 57.9714 53.9157 57.713 53.983C57.4545 54.0503 57.2308 54.2129 57.0864 54.4385C56.942 54.6642 56.8875 54.9362 56.9338 55.2004L57.3318 56.6962L55.8351 57.1015C55.6956 57.1321 55.5637 57.1907 55.4473 57.2737C55.3308 57.3567 55.2322 57.4625 55.1574 57.5847C55.0826 57.7069 55.0331 57.843 55.0118 57.9849C54.9906 58.1268 54.998 58.2715 55.0338 58.4104C55.0695 58.5494 55.1327 58.6796 55.2197 58.7934C55.3067 58.9072 55.4156 59.0021 55.54 59.0726C55.6644 59.1431 55.8016 59.1877 55.9435 59.2036C56.0854 59.2195 56.2291 59.2065 56.3659 59.1654L58.4888 58.6108L60.8771 60L58.4888 61.3892L56.3659 60.8346C56.0977 60.7758 55.8172 60.8237 55.5834 60.9682C55.3495 61.1128 55.1805 61.3427 55.1119 61.6098C55.0432 61.8769 55.0801 62.1604 55.215 62.4006C55.3499 62.6409 55.5721 62.8193 55.8351 62.8985L57.3345 63.2931L56.9338 64.7996C56.8859 64.9388 56.8672 65.0863 56.8789 65.233C56.8906 65.3797 56.9323 65.5225 57.0015 65.6522C57.0708 65.7819 57.166 65.8958 57.2811 65.9867C57.3963 66.0777 57.529 66.1437 57.6708 66.1806C57.8126 66.2175 57.9604 66.2245 58.1051 66.2012C58.2497 66.1779 58.388 66.1248 58.5112 66.0451C58.6344 65.9655 58.7398 65.8611 58.8209 65.7386C58.902 65.616 58.957 65.4779 58.9824 65.3329L59.5503 63.2371L61.9385 61.8479V64.6237L60.3915 66.1782Z" fill="#FDFEF8"/>
<path d="M38.3915 66.1782C38.2928 66.2773 38.2146 66.395 38.1612 66.5244C38.1079 66.6539 38.0804 66.7927 38.0804 66.9328C38.0804 67.073 38.1079 67.2117 38.1612 67.3412C38.2146 67.4707 38.2928 67.5883 38.3915 67.6874C38.4901 67.7865 38.6072 67.8651 38.736 67.9188C38.8649 67.9724 39.003 68 39.1424 68C39.2819 68 39.42 67.9724 39.5489 67.9188C39.6777 67.8651 39.7948 67.7865 39.8934 67.6874L41 66.5755L42.1066 67.6874C42.2052 67.7865 42.3223 67.8651 42.4511 67.9188C42.58 67.9724 42.7181 68 42.8576 68C42.997 68 43.1351 67.9724 43.264 67.9188C43.3928 67.8651 43.5099 67.7865 43.6085 67.6874C43.7072 67.5883 43.7854 67.4707 43.8388 67.3412C43.8921 67.2117 43.9196 67.073 43.9196 66.9328C43.9196 66.7927 43.8921 66.6539 43.8388 66.5244C43.7854 66.395 43.7072 66.2773 43.6085 66.1782L42.0615 64.6237V61.8479L44.4497 63.2371L45.0176 65.3329C45.1048 65.5865 45.2839 65.7977 45.5192 65.9245C45.7544 66.0512 46.0286 66.0843 46.287 66.017C46.5455 65.9497 46.7692 65.7871 46.9136 65.5615C47.058 65.3358 47.1125 65.0638 47.0662 64.7996L46.6682 63.3038L48.1649 62.8985C48.3044 62.8679 48.4363 62.8093 48.5527 62.7263C48.6692 62.6433 48.7678 62.5375 48.8426 62.4153C48.9174 62.2931 48.9669 62.157 48.9882 62.0151C49.0094 61.8732 49.002 61.7285 48.9662 61.5895C48.9305 61.4506 48.8673 61.3204 48.7803 61.2066C48.6933 61.0928 48.5844 60.9979 48.46 60.9274C48.3356 60.8569 48.1984 60.8123 48.0565 60.7964C47.9146 60.7805 47.7709 60.7935 47.6341 60.8346L45.5112 61.3892L43.1229 60L45.5112 58.6108L47.6341 59.1654C47.7709 59.2065 47.9146 59.2195 48.0565 59.2036C48.1984 59.1877 48.3356 59.1431 48.46 59.0726C48.5844 59.0021 48.6933 58.9072 48.7803 58.7934C48.8673 58.6796 48.9305 58.5494 48.9662 58.4104C49.002 58.2715 49.0094 58.1268 48.9882 57.9849C48.9669 57.843 48.9174 57.7069 48.8426 57.5847C48.7678 57.4625 48.6692 57.3567 48.5527 57.2737C48.4363 57.1907 48.3044 57.1321 48.1649 57.1015L46.6655 56.7069L47.0662 55.2004C47.1125 54.9362 47.058 54.6642 46.9136 54.4385C46.7692 54.2129 46.5455 54.0503 46.287 53.983C46.0286 53.9157 45.7544 53.9488 45.5192 54.0755C45.2839 54.2023 45.1048 54.4135 45.0176 54.6671L44.4497 56.7629L42.0615 58.1521V55.3763L43.6085 53.8218C43.8077 53.6217 43.9196 53.3502 43.9196 53.0672C43.9196 52.7841 43.8077 52.5127 43.6085 52.3126C43.4094 52.1124 43.1392 52 42.8576 52C42.5759 52 42.3057 52.1124 42.1066 52.3126L41 53.4245L39.8934 52.3126C39.7948 52.2135 39.6777 52.1349 39.5489 52.0812C39.42 52.0276 39.2819 52 39.1424 52C39.003 52 38.8649 52.0276 38.736 52.0812C38.6072 52.1349 38.4901 52.2135 38.3915 52.3126C38.2928 52.4117 38.2146 52.5293 38.1612 52.6588C38.1079 52.7883 38.0804 52.927 38.0804 53.0672C38.0804 53.2073 38.1079 53.3461 38.1612 53.4756C38.2146 53.605 38.2928 53.7227 38.3915 53.8218L39.9385 55.3763V58.1521L37.5503 56.7629L36.9824 54.6671C36.8952 54.4135 36.7161 54.2023 36.4808 54.0755C36.2455 53.9488 35.9714 53.9157 35.713 53.983C35.4545 54.0503 35.2308 54.2129 35.0864 54.4385C34.942 54.6642 34.8875 54.9362 34.9338 55.2004L35.3318 56.6962L33.8351 57.1015C33.6956 57.1321 33.5637 57.1907 33.4473 57.2737C33.3308 57.3567 33.2322 57.4625 33.1574 57.5847C33.0826 57.7069 33.0331 57.843 33.0118 57.9849C32.9906 58.1268 32.998 58.2715 33.0338 58.4104C33.0695 58.5494 33.1327 58.6796 33.2197 58.7934C33.3067 58.9072 33.4156 59.0021 33.54 59.0726C33.6644 59.1431 33.8016 59.1877 33.9435 59.2036C34.0854 59.2195 34.2291 59.2065 34.3659 59.1654L36.4888 58.6108L38.8771 60L36.4888 61.3892L34.3659 60.8346C34.0977 60.7758 33.8172 60.8237 33.5834 60.9682C33.3495 61.1128 33.1805 61.3427 33.1119 61.6098C33.0432 61.8769 33.0801 62.1604 33.215 62.4006C33.3499 62.6409 33.5721 62.8193 33.8351 62.8985L35.3345 63.2931L34.9338 64.7996C34.8859 64.9388 34.8672 65.0863 34.8789 65.233C34.8906 65.3797 34.9323 65.5225 35.0015 65.6522C35.0708 65.7819 35.166 65.8958 35.2811 65.9867C35.3963 66.0777 35.529 66.1437 35.6708 66.1806C35.8126 66.2175 35.9604 66.2245 36.1051 66.2012C36.2497 66.1779 36.388 66.1248 36.5112 66.0451C36.6344 65.9655 36.7398 65.8611 36.8209 65.7386C36.902 65.616 36.957 65.4779 36.9824 65.3329L37.5503 63.2371L39.9385 61.8479V64.6237L38.3915 66.1782Z" fill="#FDFEF8"/>
</svg>
