<svg width="98" height="85" viewBox="0 0 98 85" fill="none" xmlns="http://www.w3.org/2000/svg">
<g filter="url(#filter0_d_491_1297)">
<path fill-rule="evenodd" clip-rule="evenodd" d="M23.5829 62H30.5058C31.0538 62 31.475 62.5675 31.1868 63.1367L28.2348 69.4943H31.2231C31.8749 69.4943 32.3014 70.2896 31.7383 70.8377L21.5717 81.7517C21.0246 82.3394 20.0554 81.7965 20.2602 81.0337L20.2576 81.0329L22.3024 73.4622H19.7742C19.2404 73.4622 18.8387 72.9308 19.0639 72.3845L22.8593 62.4964C22.9772 62.1902 23.2707 62.0011 23.5829 62.0011L23.5829 62Z" fill="#00D0FF" fill-opacity="0.4" shape-rendering="crispEdges"/>
<path d="M30.5059 62.5C30.6043 62.5 30.6914 62.5506 30.7402 62.626C30.783 62.692 30.8027 62.7877 30.7402 62.9111L30.7373 62.918L30.7334 62.9258L27.7812 69.2832L27.4512 69.9941H31.2227C31.337 69.9941 31.4352 70.0637 31.4785 70.1621C31.4989 70.2085 31.5049 70.2565 31.4961 70.3027C31.4876 70.3468 31.4622 70.4088 31.3896 70.4795L31.3721 70.4971L21.2061 81.4111C21.1104 81.5139 20.9891 81.5243 20.876 81.4619C20.761 81.3984 20.7091 81.2899 20.7432 81.1631L20.8652 80.708L20.8633 80.707L22.7852 73.5928L22.9551 72.9619H19.7744C19.5788 72.9619 19.4436 72.7761 19.5264 72.5752L19.5303 72.5635L23.3262 62.6758C23.3672 62.5697 23.4703 62.501 23.583 62.501H24.0703V62.5H30.5059Z" stroke="#00D0FF" shape-rendering="crispEdges"/>
</g>
<g filter="url(#filter1_d_491_1297)">
<path fill-rule="evenodd" clip-rule="evenodd" d="M54.5829 62H61.5058C62.0538 62 62.475 62.5675 62.1868 63.1367L59.2348 69.4943H62.2231C62.8749 69.4943 63.3014 70.2896 62.7383 70.8377L52.5717 81.7517C52.0246 82.3394 51.0554 81.7965 51.2602 81.0337L51.2576 81.0329L53.3024 73.4622H50.7742C50.2404 73.4622 49.8387 72.9308 50.0639 72.3845L53.8593 62.4964C53.9772 62.1902 54.2707 62.0011 54.5829 62.0011L54.5829 62Z" fill="#00D0FF" fill-opacity="0.4" shape-rendering="crispEdges"/>
<path d="M61.5059 62.5C61.6043 62.5 61.6914 62.5506 61.7402 62.626C61.783 62.692 61.8027 62.7877 61.7402 62.9111L61.7373 62.918L61.7334 62.9258L58.7812 69.2832L58.4512 69.9941H62.2227C62.337 69.9941 62.4352 70.0637 62.4785 70.1621C62.4989 70.2085 62.5049 70.2565 62.4961 70.3027C62.4876 70.3468 62.4622 70.4088 62.3896 70.4795L62.3721 70.4971L52.2061 81.4111C52.1104 81.5139 51.9891 81.5243 51.876 81.4619C51.761 81.3984 51.7091 81.2899 51.7432 81.1631L51.8652 80.707L51.8633 80.7061L53.7852 73.5928L53.9551 72.9619H50.7744C50.5788 72.9619 50.4436 72.7761 50.5264 72.5752L50.5303 72.5635L54.3262 62.6758C54.3672 62.5697 54.4703 62.501 54.583 62.501H55.0713V62.5H61.5059Z" stroke="#00D0FF" shape-rendering="crispEdges"/>
</g>
<path d="M14 84C12.398 84 11 82.5627 11 80.924V71.076C11 69.4334 12.4018 68 14 68C15.602 68 17 69.4373 17 71.076V80.924C17 82.7719 15.8024 84 14 84Z" fill="#FDFEF8"/>
<path d="M41 84C39.398 84 38 82.5627 38 80.924V71.076C38 69.4334 39.4018 68 41 68C42.602 68 44 69.4373 44 71.076V80.924C44 82.7719 42.602 84 41 84Z" fill="#FDFEF8"/>
<path d="M68 84C66.398 84 65 82.5627 65 80.924V71.076C65 69.4334 66.4018 68 68 68C69.602 68 71 69.4373 71 71.076V80.924C71.0038 82.7719 69.602 84 68 84Z" fill="#FDFEF8"/>
<path d="M67 34H65.9609C65.4492 27.2969 59.832 22 52.9999 22C51.1249 22 49.2616 22.4102 47.5663 23.1875C44.1366 19.2461 39.2382 17 34.0003 17C24.4105 17 16.5473 24.5391 16.0273 34H15C6.7266 34 0 40.7305 0 49C0 57.2695 6.7266 64 15 64H67C75.2734 64 82 57.2695 82 49C82 40.7305 75.2734 34 67 34Z" fill="#FDFEF8"/>
<path d="M70.4658 0C71.2591 0 71.7879 0.935227 71.3915 1.60352C69.6063 4.67774 68.6805 8.28731 68.8788 12.0967C69.4079 21.386 76.8133 28.8705 86.0038 29.4053C86.4005 29.4721 86.7312 29.4727 87.1279 29.4727C90.5661 29.4727 93.7402 28.6034 96.4511 26.9326C96.5834 26.8658 96.8482 26.7988 96.9804 26.7988C97.6414 26.7991 98.2357 27.5345 97.9052 28.2695C95.2022 34.7372 89.5078 39.5756 82.5497 41.002C80.1383 35.8857 74.9729 32.3399 68.9999 32.3398H67.9609C67.5002 26.2419 62.9025 21.296 57.0058 20.3691C56.797 11.2548 62.2539 3.43599 70.0693 0.133789C70.2015 0.0669848 70.3336 3.32618e-05 70.4658 0Z" fill="#FDFEF8"/>
<defs>
<filter id="filter0_d_491_1297" x="16" y="59" width="19" height="26" filterUnits="userSpaceOnUse" color-interpolation-filters="sRGB">
<feFlood flood-opacity="0" result="BackgroundImageFix"/>
<feColorMatrix in="SourceAlpha" type="matrix" values="0 0 0 0 0 0 0 0 0 0 0 0 0 0 0 0 0 0 127 0" result="hardAlpha"/>
<feOffset/>
<feGaussianBlur stdDeviation="1.5"/>
<feComposite in2="hardAlpha" operator="out"/>
<feColorMatrix type="matrix" values="0 0 0 0 0 0 0 0 0 0.816568 0 0 0 0 1 0 0 0 1 0"/>
<feBlend mode="normal" in2="BackgroundImageFix" result="effect1_dropShadow_491_1297"/>
<feBlend mode="normal" in="SourceGraphic" in2="effect1_dropShadow_491_1297" result="shape"/>
</filter>
<filter id="filter1_d_491_1297" x="47" y="59" width="19" height="26" filterUnits="userSpaceOnUse" color-interpolation-filters="sRGB">
<feFlood flood-opacity="0" result="BackgroundImageFix"/>
<feColorMatrix in="SourceAlpha" type="matrix" values="0 0 0 0 0 0 0 0 0 0 0 0 0 0 0 0 0 0 127 0" result="hardAlpha"/>
<feOffset/>
<feGaussianBlur stdDeviation="1.5"/>
<feComposite in2="hardAlpha" operator="out"/>
<feColorMatrix type="matrix" values="0 0 0 0 0 0 0 0 0 0.816568 0 0 0 0 1 0 0 0 1 0"/>
<feBlend mode="normal" in2="BackgroundImageFix" result="effect1_dropShadow_491_1297"/>
<feBlend mode="normal" in="SourceGraphic" in2="effect1_dropShadow_491_1297" result="shape"/>
</filter>
</defs>
</svg>
