<svg width="82" height="64" viewBox="0 0 82 64" fill="none" xmlns="http://www.w3.org/2000/svg">
<path d="M2.92857 23.2726H35.1429C41.615 23.2726 46.8571 18.0653 46.8571 11.6363C46.8571 5.20729 41.615 0 35.1429 0H32.2143C30.6035 0 29.2857 1.30904 29.2857 2.90908C29.2857 4.50911 30.6035 5.81815 32.2143 5.81815H35.1429C38.3643 5.81815 41 8.43632 41 11.6363C41 14.8363 38.3643 17.4545 35.1429 17.4545H2.92857C1.31781 17.4545 0 18.7635 0 20.3635C0 21.9636 1.31781 23.2726 2.92857 23.2726Z" fill="#FDFEF8"/>
<path d="M70.2857 11.6367H67.3571C65.7464 11.6367 64.4286 12.9458 64.4286 14.5458C64.4286 16.1458 65.7464 17.4549 67.3571 17.4549H70.2857C73.5071 17.4549 76.1429 20.073 76.1429 23.273C76.1429 26.473 73.5071 29.0912 70.2857 29.0912H2.92857C1.31781 29.0912 0 30.4002 0 32.0003C0 33.6003 1.31781 34.9093 2.92857 34.9093H70.2857C76.7578 34.9093 82 29.702 82 23.273C82 16.844 76.7578 11.6367 70.2857 11.6367Z" fill="#FDFEF8"/>
<path d="M49.7857 40.7266H2.92857C1.31781 40.7266 0 42.0356 0 43.6356C0 45.2357 1.31781 46.5447 2.92857 46.5447H49.7857C53.0071 46.5447 55.6429 49.1629 55.6429 52.3629C55.6429 55.5629 53.0071 58.181 49.7857 58.181H46.8571C45.2464 58.181 43.9286 59.4901 43.9286 61.0901C43.9286 62.6901 45.2464 63.9992 46.8571 63.9992H49.7857C56.2578 63.9992 61.5 58.7919 61.5 52.3629C61.5 45.9339 56.2578 40.7266 49.7857 40.7266Z" fill="#FDFEF8"/>
<path d="M23.4286 52.3633H2.92857C1.31781 52.3633 0 53.6723 0 55.2724C0 56.8724 1.31781 58.1814 2.92857 58.1814H23.4286C25.0393 58.1814 26.3571 56.8724 26.3571 55.2724C26.3571 53.6723 25.0393 52.3633 23.4286 52.3633Z" fill="#FDFEF8"/>
</svg>
